<svg class="animated" id="freepik_stories-instant-information" xmlns="http://www.w3.org/2000/svg" viewBox="0 0 500 500" version="1.1" xmlns:xlink="http://www.w3.org/1999/xlink" xmlns:svgjs="http://svgjs.com/svgjs"><style>svg#freepik_stories-instant-information:not(.animated) .animable {opacity: 0;}svg#freepik_stories-instant-information.animated #freepik--Character--inject-73 {animation: 2.8s 1 forwards ease-in slideDown;animation-delay: 0.5s;opacity: 0}svg#freepik_stories-instant-information.animated #freepik--speech-bubbles--inject-73 {animation: 3s Infinite  linear shake;animation-delay: 0s;}            @keyframes slideDown {                0% {                    opacity: 0;                    transform: translateY(-30px);                }                100% {                    opacity: 1;                    transform: translateY(0);                }            }                    @keyframes shake {                10%, 90% {                    transform: translate3d(-1px, 0, 0);                  }                  20%, 80% {                    transform: translate3d(2px, 0, 0);                  }                  30%, 50%, 70% {                    transform: translate3d(-4px, 0, 0);                  }                  40%, 60% {                    transform: translate3d(4px, 0, 0);                  }            }        </style><g id="freepik--background-complete--inject-73" class="animable" style="transform-origin: 250.001px 240.639px;"><g id="eljzexw6kzi48"><rect x="159.05" y="181.31" width="2" height="122.76" style="fill: rgb(235, 235, 235); transform-origin: 160.05px 242.69px; transform: rotate(-88.69deg);" class="animable"></rect></g><g id="elygfhpcmam3"><rect x="309.4" y="231.35" width="2" height="119.63" style="fill: rgb(235, 235, 235); transform-origin: 310.4px 291.165px; transform: rotate(-38.11deg);" class="animable"></rect></g><g id="elffkopt31ihd"><rect x="190.32" y="78.61" width="2" height="145.04" style="fill: rgb(235, 235, 235); transform-origin: 191.32px 151.13px; transform: rotate(-33.35deg);" class="animable"></rect></g><g id="ele5r2bcz5nd"><rect x="77.6" y="323.16" width="168.1" height="2" style="fill: rgb(235, 235, 235); transform-origin: 161.65px 324.16px; transform: rotate(-41.5deg);" class="animable"></rect></g><rect x="307.17" y="240.28" width="117" height="2" style="fill: rgb(235, 235, 235); transform-origin: 365.67px 241.28px;" id="elfdvm3iuk1nq" class="animable"></rect><g id="elvjfhvfy2bh"><circle cx="145.52" cy="83.61" r="25.73" style="fill: rgb(235, 235, 235); transform-origin: 145.52px 83.61px; transform: rotate(-76.57deg);" class="animable"></circle></g><path d="M137.76,79.88a8.1,8.1,0,1,0,8.1-8.09A8.1,8.1,0,0,0,137.76,79.88Z" style="fill: rgb(255, 255, 255); transform-origin: 145.86px 79.89px;" id="elqesl8ui1jn" class="animable"></path><path d="M131.87,102.21v3.34a25.89,25.89,0,0,0,7.67,3.21,26.41,26.41,0,0,0,20.3-3.22v-3.33a14,14,0,0,0-28,0Z" style="fill: rgb(255, 255, 255); transform-origin: 145.84px 98.871px;" id="elavdowqrnos" class="animable"></path><path d="M431.25,268.57c9.25-10.63,17.91-22.29,16.65-35.14-.84-8.34-6.59-16.62-16.65-16.62s-15.83,8.28-16.67,16.62C413.3,246.28,422,257.94,431.25,268.57Zm-9.15-35a9.13,9.13,0,1,1,9.15,9.13A9.12,9.12,0,0,1,422.1,233.55Z" style="fill: rgb(235, 235, 235); transform-origin: 431.238px 242.69px;" id="ela4gbgxmoemc" class="animable"></path><g id="freepik--aiZGp2--inject-73" class="animable" style="transform-origin: 372.525px 375.87px;"><path d="M400,352.63A66.17,66.17,0,0,1,404.41,373h18.06v-.5l-.15-1.39a50.24,50.24,0,0,0-1.19-7.11,55.6,55.6,0,0,0-4-11.13.41.41,0,0,0-.44-.26H400Z" style="fill: rgb(235, 235, 235); transform-origin: 411.235px 362.803px;" id="elrotsnhn1kzf" class="animable"></path><path d="M400.49,398.18h16.59a.38.38,0,0,0,.41-.27A51.53,51.53,0,0,0,422.42,379a1.74,1.74,0,0,1,.05-.22v-.5l-.27,0H404.72c-.32,0-.3,0-.33.33-.11,1.45-.2,2.9-.34,4.35a60.72,60.72,0,0,1-1.11,6.83,63.39,63.39,0,0,1-2.36,8.12Z" style="fill: rgb(235, 235, 235); transform-origin: 411.48px 388.231px;" id="el5xq7qt6uibv" class="animable"></path><path d="M330.71,403.44l.14.24a49.8,49.8,0,0,0,4.71,6.1,45.58,45.58,0,0,0,6.89,6.35,49.13,49.13,0,0,0,16.14,8.09,51.21,51.21,0,0,0,6.91,1.48l.68.11h.4l.39-.25-.44-.31a53.14,53.14,0,0,1-13.09-12.69,59.14,59.14,0,0,1-5.34-8.87.4.4,0,0,0-.42-.26h-17Z" style="fill: rgb(235, 235, 235); transform-origin: 348.825px 414.619px;" id="elx59atnoie3q" class="animable"></path><path d="M347.31,373h23.31V352.64h-18.2a.32.32,0,0,0-.36.24,56.7,56.7,0,0,0-3.71,11.93,61,61,0,0,0-.9,6.47C347.41,371.84,347.36,372.41,347.31,373Z" style="fill: rgb(235, 235, 235); transform-origin: 358.965px 362.818px;" id="ellcnxuhlsa8" class="animable"></path><path d="M347.45,378.44c0,.48,0,1,.07,1.44.1,1.14.18,2.27.34,3.4.22,1.56.46,3.12.77,4.67a55.6,55.6,0,0,0,3,9.94.4.4,0,0,0,.43.3h18.68V378.44Z" style="fill: rgb(235, 235, 235); transform-origin: 359.095px 388.316px;" id="elhwpvltttfb8" class="animable"></path><path d="M375.87,352.76v20.4h22.76c0-.52-.05-1-.1-1.53-.12-1.14-.21-2.28-.39-3.41-.28-1.73-.57-3.46-.94-5.17a53.61,53.61,0,0,0-3.29-10,.37.37,0,0,0-.39-.25H375.87Z" style="fill: rgb(235, 235, 235); transform-origin: 387.25px 362.96px;" id="elca5enirz31m" class="animable"></path><path d="M375.85,378.71v19.47H394a.38.38,0,0,0,.4-.27,52.72,52.72,0,0,0,3.1-10.28c.34-1.81.6-3.64.83-5.47.15-1.19.18-2.4.26-3.61a.47.47,0,0,0,0-.12H376.14C375.9,378.42,375.85,378.49,375.85,378.71Z" style="fill: rgb(235, 235, 235); transform-origin: 387.222px 388.305px;" id="elzmhmtgqs32" class="animable"></path><path d="M322.6,373.15h19.09a66.58,66.58,0,0,1,4.46-20.52H328.34a.38.38,0,0,0-.41.25,49.66,49.66,0,0,0-4.4,12.77,53.73,53.73,0,0,0-.93,7.16C322.59,372.92,322.6,373,322.6,373.15Z" style="fill: rgb(235, 235, 235); transform-origin: 334.373px 362.888px;" id="elj8b2e4qi9t" class="animable"></path><path d="M322.58,378.29c0,.46,0,.9.06,1.34.13,1.72.33,3.44.63,5.14a50.05,50.05,0,0,0,3.51,11.47c.26.59.54,1.17.81,1.76a.26.26,0,0,0,.28.18h17.74l-.63-1.8a63.43,63.43,0,0,1-3.18-16.23c0-.55-.07-1.1-.09-1.65,0-.14,0-.21-.2-.2H322.58Z" style="fill: rgb(235, 235, 235); transform-origin: 334.095px 388.236px;" id="el519ctiyvloy" class="animable"></path><path d="M331.23,347.43a.59.59,0,0,1,0,.08h17a.38.38,0,0,0,.4-.24A57.66,57.66,0,0,1,356.91,335a47.07,47.07,0,0,1,6.36-5.86c1.14-.88,2.33-1.7,3.49-2.54l.19-.15-.23-.16c0-.1.07-.21.11-.36a50,50,0,0,0-35.6,21.51Z" style="fill: rgb(235, 235, 235); transform-origin: 349.09px 336.721px;" id="el3uhe5umlb4g" class="animable"></path><path d="M379.11,425.58a2.15,2.15,0,0,0,.48.08A46,46,0,0,0,385,424.6a49,49,0,0,0,19.57-10.08,46.3,46.3,0,0,0,5.94-5.94,49.16,49.16,0,0,0,3.71-5.13l.08-.16H398.51a.38.38,0,0,0-.39.26,59.63,59.63,0,0,1-5.72,9.31,58.24,58.24,0,0,1-6.7,7.42,51.06,51.06,0,0,1-6.45,5.19Z" style="fill: rgb(235, 235, 235); transform-origin: 396.705px 414.474px;" id="eltmwzbomq8z" class="animable"></path><path d="M379.32,326.42c.7.52,1.54,1.11,2.35,1.73a58.15,58.15,0,0,1,7.54,7,53.63,53.63,0,0,1,7.91,11.28c.13.26.25.53.4.78a.36.36,0,0,0,.24.15c.28,0,.56,0,.85,0h15.2c-8.47-12-19.84-19.16-34.32-21.35l.1.19Z" style="fill: rgb(235, 235, 235); transform-origin: 396.565px 336.685px;" id="elveldn001nnn" class="animable"></path><path d="M354.27,403.45A54.38,54.38,0,0,0,362,413.87a49.51,49.51,0,0,0,8.79,7.46V403.45Z" style="fill: rgb(235, 235, 235); transform-origin: 362.53px 412.39px;" id="elo73c0zgljpc" class="animable"></path><path d="M375.88,403.46V421a50.94,50.94,0,0,0,15.82-17.53Z" style="fill: rgb(235, 235, 235); transform-origin: 383.79px 412.23px;" id="elqya31nr90qi" class="animable"></path><path d="M354.78,347.36h15.83v-16.7a48.36,48.36,0,0,0-8.88,7.44A56,56,0,0,0,354.78,347.36Z" style="fill: rgb(235, 235, 235); transform-origin: 362.695px 339.01px;" id="el94ukyc1eieo" class="animable"></path><path d="M375.87,331.18V347.5h15.2A48,48,0,0,0,375.87,331.18Z" style="fill: rgb(235, 235, 235); transform-origin: 383.47px 339.34px;" id="el9xiqcc6vex" class="animable"></path></g><g id="elmzcvwge42lo"><rect x="51.98" y="214.41" width="56.56" height="56.56" style="fill: rgb(235, 235, 235); transform-origin: 80.26px 242.69px; transform: rotate(180deg);" class="animable"></rect></g><g id="elmje1339ygx"><rect x="54.75" y="217.18" width="51.03" height="51.03" style="fill: rgb(219, 219, 219); transform-origin: 80.265px 242.695px; transform: rotate(180deg);" class="animable"></rect></g><path d="M63,229.35a4.81,4.81,0,1,0,3.78-3.78A4.82,4.82,0,0,0,63,229.35Z" style="fill: rgb(199, 199, 199); transform-origin: 67.7177px 230.288px;" id="el6mz7cseh7e" class="animable"></path><polygon points="68.9 254.96 105.78 254.96 87.34 234.28 68.9 254.96" style="fill: rgb(199, 199, 199); transform-origin: 87.34px 244.62px;" id="elvz7ifsqmuv" class="animable"></polygon><polygon points="54.75 254.96 85.19 254.96 69.97 241.49 54.75 254.96" style="fill: rgb(166, 166, 166); transform-origin: 69.97px 248.225px;" id="el73vjmcelicm" class="animable"></polygon><rect x="54.75" y="254.96" width="51.03" height="13.24" style="fill: rgb(166, 166, 166); transform-origin: 80.265px 261.58px;" id="elcehq5p7kl7c" class="animable"></rect><polygon points="142 367 142 415 136 415 136 426.93 124.23 415 60 415 60 367 142 367" style="fill: rgb(255, 255, 255); transform-origin: 101px 396.965px;" id="el1d8d8pdfz71" class="animable"></polygon><path d="M142,367c.11,14.49.57,34.27.6,48.59H142l-6,0,.65-.65.09,11.93v1.8l-1.28-1.28L123.62,415.6l.61.25c-19.33,0-46.15.2-65.21.12v-1l.13-48v-.86c20.88.16,62,.56,82.85.86Zm0,0c-20.44.3-61.57.7-82,.85l.85-.85L61,415l-1-1c18.69,0,45.63.09,64.59.13l.25.25,11.69,12-1.27.52.09-11.93v-.65c.39,0,6.12,0,6.64,0l-.6.6c.13-13.81.4-34,.6-48Z" style="fill: rgb(235, 235, 235); transform-origin: 100.81px 397.39px;" id="el03mvrzzngxo5" class="animable"></path><path d="M85.88,391.24a3.91,3.91,0,1,1-3.91-3.9A3.91,3.91,0,0,1,85.88,391.24Z" style="fill: rgb(235, 235, 235); transform-origin: 81.97px 391.25px;" id="elykvko3z06pd" class="animable"></path><path d="M105.35,391.24a3.9,3.9,0,1,1-3.9-3.9A3.91,3.91,0,0,1,105.35,391.24Z" style="fill: rgb(235, 235, 235); transform-origin: 101.45px 391.24px;" id="ell1lt3862i1h" class="animable"></path><path d="M124.83,391.24a3.91,3.91,0,1,1-3.9-3.9A3.91,3.91,0,0,1,124.83,391.24Z" style="fill: rgb(235, 235, 235); transform-origin: 120.92px 391.25px;" id="elttbq924v4a" class="animable"></path><g id="els2ulw5kzdh"><circle cx="260.3" cy="241.29" r="46.86" style="fill: rgb(235, 235, 235); transform-origin: 260.3px 241.29px; transform: rotate(-45deg);" class="animable"></circle></g></g><g id="freepik--Plant--inject-73" class="animable" style="transform-origin: 424.086px 395.403px;"><path d="M454.78,366.15c-12.39,16.78-25.31,36.26-28.46,57.31a.28.28,0,0,0,.55.11,126.16,126.16,0,0,1,5.48-16.86c8.15-2.24,16.14-4.08,20.42-12.17,4.37-8.31,3.81-19.15,3-28.21C455.7,365.85,455,365.82,454.78,366.15Z" style="fill: rgb(43, 255, 39); transform-origin: 441.322px 394.863px;" id="elp46meawbenk" class="animable"></path><path d="M432.47,406.56c5.57-12.5,12.72-25,21.8-35.32.06-.07.16,0,.1.1-5.95,7.32-10.47,15.29-14.88,23.4,4.1-4.17,8.6-7.9,12.49-12.32.07-.09.19,0,.12.13-3.86,4.63-8.07,9.66-13.1,13.09q-2,3.74-4.09,7.48c.34-.19.69-.36,1-.53.06,0,.12.06.06.09-.39.2-.77.4-1.16.57-.65,1.18-1.3,2.36-2,3.54C432.72,407.05,432.35,406.82,432.47,406.56Z" style="fill: rgb(38, 50, 56); transform-origin: 443.417px 389.058px;" id="elj1wazghjlyd" class="animable"></path><path d="M436.61,402.2a74,74,0,0,0,9.52-6.35c.08-.07.2,0,.11.11a49.86,49.86,0,0,1-9.49,6.47C436.59,402.51,436.46,402.28,436.61,402.2Z" style="fill: rgb(38, 50, 56); transform-origin: 441.408px 399.134px;" id="elc3qi07pabr8" class="animable"></path><path d="M424.89,420.33a.23.23,0,0,0,.45,0c.06-6.93,0-13.89.11-20.86,1.78-3.58,5.59-5.56,8.24-8.44a37,37,0,0,0,4.94-6.88A49.57,49.57,0,0,0,444.37,365c.73-7.42-2.08-31.89-5.21-31-1.62.44-6.87,12.56-8.26,16.57A115.24,115.24,0,0,0,426,370.85C423.44,387.17,423.65,403.92,424.89,420.33Z" style="fill: rgb(43, 255, 39); transform-origin: 434.243px 377.244px;" id="eltfa96qdqt5c" class="animable"></path><path d="M424.84,390.43l0,0c.38-8.77,2.35-17.63,4.2-26.13,2-9.17,4.33-17.8,9-26a.14.14,0,0,1,.24.13,96.09,96.09,0,0,0-7.26,19.94c.31-.5.69-1,1-1.43.13-.19.44,0,.31.18a12.66,12.66,0,0,1-1.48,2.08s0,0-.06,0c-1.62,6.55-2.79,13.26-3.78,19.94a2.75,2.75,0,0,1,.22-.26c.05,0,.14,0,.1.08-.12.22-.26.44-.4.66-.5,3.4-1,6.78-1.43,10.14,6-5.17,11.2-11.25,14.11-18.75,0,0,.07,0,.05,0-2.85,7.77-7.34,14.69-14.26,19.41-.13.9-.25,1.81-.38,2.71,0,.18-.32.13-.32-.05,0-.8,0-1.6.07-2.4A.18.18,0,0,1,424.84,390.43Z" style="fill: rgb(38, 50, 56); transform-origin: 432.182px 365.748px;" id="el6w71xqtqwmi" class="animable"></path><path d="M427.68,377.72c4.62-6.89,8.93-13.58,12.31-21.2,0-.08.18,0,.15.07-2.85,7.56-6.83,15.23-12.23,21.31A.15.15,0,0,1,427.68,377.72Z" style="fill: rgb(38, 50, 56); transform-origin: 433.905px 367.21px;" id="elsoorxzb3hf" class="animable"></path><path d="M433.82,354.82c1.91-3.38,3.93-6.67,5.73-10.12.05-.1.18,0,.14.08A52.74,52.74,0,0,1,434.11,355,.17.17,0,0,1,433.82,354.82Z" style="fill: rgb(38, 50, 56); transform-origin: 436.746px 349.869px;" id="elto1q86o55as" class="animable"></path><path d="M433.07,356.29a0,0,0,0,1,0,.06A0,0,0,1,1,433.07,356.29Z" style="fill: rgb(38, 50, 56); transform-origin: 433.07px 356.32px;" id="elro1ipshhxvn" class="animable"></path><path d="M420.19,400.29a70.3,70.3,0,0,1-1.61,13.65c.07.5.14,1,.21,1.5a65.14,65.14,0,0,0,2.44-15.22.48.48,0,0,0,0-.48h0a100.58,100.58,0,0,0-1.53-20.63c-2.14-12.74-6.83-25-15.72-34.51a.63.63,0,0,0-1,.2c-3.59,9.12-2.34,20,.72,29.09a53.11,53.11,0,0,0,7,13.81C413.83,392,417.72,395.61,420.19,400.29Z" style="fill: rgb(43, 255, 39); transform-origin: 411.044px 379.936px;" id="elzr50tvp9y2" class="animable"></path><path d="M405.05,348.85c8.42,13.67,14.28,29.87,15,46,0,.28-.47.36-.51.07-.2-1.46-.42-2.89-.65-4.32h0c-3.48-3.34-7.06-6.86-9.55-11a.08.08,0,0,1,.12-.09,115.19,115.19,0,0,0,9.28,10.1c-.61-3.57-1.32-7.08-2.17-10.54l-.66-.78c-.15-.17.09-.42.25-.25l.2.22a121.84,121.84,0,0,0-4.4-14c-2.15-2.55-4.54-4.76-6.1-7.84a.07.07,0,1,1,.11-.07c1.25,1.76,2.47,3.53,3.89,5.17.57.65,1.19,1.26,1.78,1.89A109.11,109.11,0,0,0,404.73,349,.19.19,0,0,1,405.05,348.85Z" style="fill: rgb(38, 50, 56); transform-origin: 412.39px 371.95px;" id="el8zsj3mvca29" class="animable"></path><path d="M406.75,365.71c2.73,3.66,5.83,7.16,8.36,11,.07.1-.09.22-.18.13-3.25-3.05-6-7.21-8.36-11C406.5,365.7,406.67,365.61,406.75,365.71Z" style="fill: rgb(38, 50, 56); transform-origin: 410.84px 371.27px;" id="elhw0xjg03d1s" class="animable"></path><path d="M415.49,377.5l.11.12a.09.09,0,1,1-.12.12l-.12-.11C415.28,377.55,415.41,377.42,415.49,377.5Z" style="fill: rgb(38, 50, 56); transform-origin: 415.493px 377.633px;" id="elsjxgv2qjke" class="animable"></path><path d="M391.86,375.13A42,42,0,0,0,400.74,396,22.23,22.23,0,0,0,408,401.6c3.12,1.54,6.39,3.32,9.62,4.59a62.84,62.84,0,0,1,3.4,12.09c.11-.35.21-.72.31-1.07-2.07-17.8-13.59-33-28.32-42.78A.71.71,0,0,0,391.86,375.13Z" style="fill: rgb(43, 255, 39); transform-origin: 406.586px 396.271px;" id="elx70r9jkk56" class="animable"></path><path d="M397,380.38c-.1-.09,0-.27.15-.19a60.22,60.22,0,0,1,18.77,23.14c.11.24-.22.46-.36.21q-1-1.8-2.1-3.51h0c-3.36-.63-6.54-3-9-5.25-.07-.06,0-.16.1-.1a20.42,20.42,0,0,0,4.26,3c1.37.7,2.84,1.14,4.27,1.7-1.25-2-2.55-3.88-3.9-5.72A39.29,39.29,0,0,1,399,388a.1.1,0,0,1,.1-.17,101,101,0,0,0,9.39,5,86.34,86.34,0,0,0-6.63-7.74c-1.15-.6-2.31-1.21-3.41-1.85-.09-.05,0-.21.07-.17a12.19,12.19,0,0,1,2.62,1.28C399.79,383,398.42,381.68,397,380.38Z" style="fill: rgb(38, 50, 56); transform-origin: 406.451px 391.91px;" id="elkamhbftklr" class="animable"></path><path d="M397.26,386.53a3.93,3.93,0,0,1,.57.41c.05,0,0,.11-.07.09a4.3,4.3,0,0,1-.59-.34C397.07,386.63,397.16,386.47,397.26,386.53Z" style="fill: rgb(38, 50, 56); transform-origin: 397.488px 386.775px;" id="elmx0v4uy82j" class="animable"></path><polygon points="444.28 456.83 403.9 456.83 407.16 420.06 407.88 411.95 440.3 411.95 441.02 420.06 444.28 456.83" style="fill: rgb(69, 90, 100); transform-origin: 424.09px 434.39px;" id="elvs00kznk6b" class="animable"></polygon><polygon points="441.02 420.06 407.16 420.06 407.88 411.95 440.3 411.95 441.02 420.06" style="fill: rgb(38, 50, 56); transform-origin: 424.09px 416.005px;" id="el18lluowtwj2" class="animable"></polygon><rect x="405.95" y="406.28" width="36.29" height="8.02" style="fill: rgb(69, 90, 100); transform-origin: 424.095px 410.29px;" id="elrbgzehp0pum" class="animable"></rect></g><g id="freepik--Character--inject-73" class="animable" style="transform-origin: 240.003px 278.65px;"><path d="M315.74,456.78H213.67c-.84-3.28-1.65-6.51-2.47-9.7-.93-3.66-1.85-7.23-2.73-10.71-.19-.77-.4-1.55-.59-2.31l-2-7.79c-.39-1.54-.78-3-1.15-4.55s-.78-3-1.15-4.49c-.11-.39-.2-.77-.3-1.15s-.21-.84-.31-1.25-.26-1-.39-1.52h0c-.14-.53-.27-1.05-.4-1.57-.26-1-.51-2-.74-2.89l-1.05-4.1c-.14-.59-.29-1.17-.44-1.74-.24-.93-.47-1.83-.69-2.73-.16-.59-.3-1.17-.44-1.74q-.92-3.51-1.69-6.6c-.14-.54-.27-1.07-.41-1.59-.22-.89-.44-1.75-.65-2.57-.14-.52-.27-1-.38-1.52-.46-1.76-.87-3.36-1.22-4.77-.1-.37-.19-.74-.29-1.09-.23-.93-.45-1.75-.63-2.49-.08-.3-.14-.58-.22-.84s-.14-.57-.21-.82-.09-.36-.12-.51-.13-.5-.19-.7-.05-.22-.07-.31l-.24-.92h99.35s3.27,11.28,8.51,29.46c1.06,3.7,2.21,7.7,3.44,11.94C307.3,427.32,311.36,441.47,315.74,456.78Z" style="fill: rgb(55, 71, 79); transform-origin: 254.12px 415.295px;" id="elde7t6qoqkl" class="animable"></path><path d="M230.38,456.78h-2.55q-5.66-23.44-11-47-1.28-5.71-2.53-11.46c-.08-.36-.16-.71-.23-1.07a.15.15,0,0,1,.29-.08c0,.12.07.24.11.35,1.15,4.1,2.3,8.22,3.42,12.33Q224.38,433.26,230.38,456.78Z" style="fill: rgb(38, 50, 56); transform-origin: 222.222px 426.92px;" id="elxxduf0ktepg" class="animable"></path><path d="M288.65,373.8l-4.38,21.95-3.6,18-6.12,30.68-.63,3.15-1.05,5.23-.79,4H213.66c-.83-3.29-1.66-6.53-2.46-9.7-.93-3.66-1.85-7.23-2.73-10.71-.19-.77-.4-1.55-.59-2.31l-2-7.79c-.39-1.54-.78-3-1.15-4.55s-.78-3-1.15-4.49c-.11-.39-.2-.77-.3-1.15s-.21-.84-.31-1.25-.26-1-.39-1.52h0c-.14-.53-.27-1.05-.4-1.57-.26-1-.51-2-.74-2.89l-1.05-4.1c-.15-.6-.29-1.17-.44-1.74-.24-.93-.47-1.83-.69-2.73-.16-.59-.3-1.17-.44-1.74q-.92-3.51-1.69-6.6c-.14-.54-.27-1.07-.41-1.59-.22-.89-.44-1.75-.65-2.57-.14-.52-.27-1-.38-1.52-.46-1.76-.87-3.36-1.22-4.77-.1-.37-.19-.74-.29-1.09-.23-.93-.45-1.75-.63-2.49-.08-.3-.14-.58-.22-.84s-.14-.57-.21-.82-.09-.36-.12-.51-.13-.5-.19-.7-.05-.22-.07-.31l-.24-.92Z" style="fill: rgb(38, 50, 56); transform-origin: 240.575px 415.305px;" id="elh54u923o6mv" class="animable"></path><path d="M288.66,373.76v0c0,.54-.41,6.47-1.37,15.51-.27,2.63-.59,5.53-1,8.64-.58,4.9-1.3,10.3-2.2,16-1.52,10-3.51,20.85-6.1,31.48-.92,3.83-1.93,7.62-3,11.33l-130.88.05s-1.65-10.06-1.42-13c1.24-16,10.57-70,10.57-70l116.33,0Z" style="fill: rgb(55, 71, 79); transform-origin: 215.664px 415.265px;" id="elcp3bwr8xwbt" class="animable"></path><path d="M288.39,385.54c-.14,4.59-.33,9.17-.63,13.74-.31,5-.76,9.89-1.41,14.83a4.86,4.86,0,0,1-.07.55q-.9,6.94-2.08,13.85c-.74,4.29-1.28,8.92-3.18,12.9a12.5,12.5,0,0,1-3,4,8.94,8.94,0,0,1-4.1,2.13,5,5,0,0,1-.76.12c-.07,0-.15,0-.22,0a.28.28,0,0,1,.14.27c-.05,1.54,0,3.1-.18,4.63a1.25,1.25,0,0,0,0,.19c-.15,1.34-.4,2.66-.65,4H270s0,0,0-.07c.39-1.45.71-2.91,1.08-4.38s.87-2.94,1.22-4.46a.38.38,0,0,1,.11-.14,6.85,6.85,0,0,1-6.63-4.15c-.73-2-.4-4-.1-6,.4-2.62.79-5.25,1.19-7.88.75-4.82,1.72-9.59,2.58-14.39.12-.73.25-1.46.38-2.19,1.72-9.76,3.52-19.53,5.68-29.2.08-.4.17-.81.26-1.21s.49-.19.47.07c-.07.65-.13,1.31-.21,1.95q-.57,5.57-1.33,11.1c-.62,4.33-1.05,8.69-1.66,13-.21,1.48-.41,2.95-.63,4.43-1,7.12-2,14.25-3.25,21.35-.57,3.3-2.62,9.21,2.12,10.23a4.8,4.8,0,0,0,3.22-.4,10.09,10.09,0,0,0,4.41-5.57c1.35-3.78,1.83-7.94,2.53-11.88q1.15-6.51,2.07-13.05h0q1.15-8.18,2.43-16.31c.42-2.77.86-5.54,1.3-8.3.21-1.28.42-2.56.62-3.85C288,385.19,288.39,385.27,288.39,385.54Z" style="fill: rgb(38, 50, 56); transform-origin: 276.865px 419.603px;" id="el4uvf7twiai7" class="animable"></path><path d="M174.91,419.64a65,65,0,0,0,15.82-2.13c2.38-.62,4.74-1.38,7.07-2.14a18.5,18.5,0,0,0,6.39-3.21c3.59-3.1,5.27-8,6.83-12.32a117.72,117.72,0,0,0,4.15-15c.05-.25.42-.16.43.07a58.07,58.07,0,0,1-2.16,17c-1.29,4.69-3,9.92-6.81,13.21-4,3.46-9.4,4.67-14.5,5.3a66.78,66.78,0,0,1-17.24-.24A.28.28,0,0,1,174.91,419.64Z" style="fill: rgb(38, 50, 56); transform-origin: 195.154px 402.778px;" id="el1mh0l1utxeh" class="animable"></path><path d="M166,385c-.28,7.17-7.71,44.63-8.26,51.79-.35,4.61,1.43,20,1.43,20h-1.82s-1.38-13.7-1.19-20c.2-7.18,8.66-44.57,9.22-51.74A.31.31,0,0,1,166,385Z" style="fill: rgb(38, 50, 56); transform-origin: 161.071px 420.752px;" id="elaw6l1gc42b6" class="animable"></path><path d="M271.61,223.85c49.31,44.44,95,93.1,98.59,118,5,34.39-16.2,43.93-25.67,44-25.81.26-72.7-104.33-89-144.26C239.68,202.79,260.78,214.09,271.61,223.85Z" style="fill: rgb(247, 169, 160); transform-origin: 310.391px 300.139px;" id="el841666kbq3w" class="animable"></path><path d="M346,295l-54.82,29.8s-34.09-63-41.94-92.15,3.87-28.34,29.67-5.64S346,295,346,295Z" style="fill: rgb(199, 199, 199); transform-origin: 296.416px 267.572px;" id="el794zrpda1pk" class="animable"></path><path d="M346,295l-54.82,29.8s-34.09-63-41.94-92.15,3.87-28.34,29.67-5.64S346,295,346,295Z" style="fill: rgb(43, 255, 39); transform-origin: 296.416px 267.572px;" id="el41edr2szrg8" class="animable"></path><g id="elgsofjmbnati"><path d="M249.27,232.61c7.85,29.2,41.94,92.17,41.94,92.17l49.92-27.15L249.2,211.22C246.13,213.57,246,220.51,249.27,232.61Z" style="opacity: 0.1; transform-origin: 293.994px 268px;" class="animable"></path></g><path d="M334.75,286.57c-21.14,14.3-41.63,23.59-45.73,26-.2.11-.36-.22-.15-.32,4.14-2.11,26.64-16.11,45.71-26C334.8,286.1,335,286.43,334.75,286.57Z" style="fill: rgb(38, 50, 56); transform-origin: 311.819px 299.402px;" id="eleizwhmr434o" class="animable"></path><path d="M303.57,407,143,407.45S157,286.65,216,215.3c13.65-16.52,35.62-7.54,44.88,1.22C284.36,238.79,304,406.41,303.57,407Z" style="fill: rgb(43, 255, 39); transform-origin: 223.288px 306.759px;" id="elt1qvkklb6a" class="animable"></path><path d="M249.31,209.13c-6.86,5-13.45,10.34-20.13,15.51-3.44,2.66-6.8,5.49-10.4,7.92-2.88,1.94-6.19,3.56-9.74,3.36a11.27,11.27,0,0,1-6.39-2.58l.37-.57a11.33,11.33,0,0,0,2.43,1.51c3.55,1.62,7.4.82,10.71-1,3.65-2,6.87-4.85,10.15-7.39q5.38-4.19,10.78-8.37c3.71-2.87,7.4-6,11.26-8.79C248.68,208.86,249,209,249.31,209.13Zm-23.76,82.72c3.55-5.08,5.28-11.9,3.06-17.86-2-5.33-6.77-8.84-12.19-10.14a24.66,24.66,0,0,0-16.73,2c-6.76,3.44-11.67,9.51-17.74,13.91a28.6,28.6,0,0,1-5.5,3.14c-.18.42-.35.84-.52,1.25,6.54-2.48,11.4-7.68,16.63-12.13a35.36,35.36,0,0,1,9.2-6.06,24.11,24.11,0,0,1,9-1.77c5.87-.06,12.14,2.13,15.5,7.21,3.8,5.75,2.68,13.2-.78,18.82-8.79,14.23-28.23,13.33-42.76,13.6a84.66,84.66,0,0,0-14.88,1.39c-.14.38-.28.76-.41,1.14a90.81,90.81,0,0,1,16.93-1.5C198.48,304.66,216.44,304.88,225.55,291.85Zm3.55-36a55.32,55.32,0,0,0,36.1-8.4,53.65,53.65,0,0,0,8-6.23l-.36-1a51.94,51.94,0,0,1-8.47,6.58,53.94,53.94,0,0,1-37.31,7.69c-10.68-1.82-20.25-8.38-30.61-11.28l-.6,1a93.64,93.64,0,0,1,13.1,5.18C215.44,252.26,222,255,229.1,255.86Zm-11.91,97.42a24.79,24.79,0,0,0,7.26-16.09c.31-5.56-1.45-11.43-5.87-15.06-5.07-4.13-12-4.32-18-2.38-6.92,2.24-12.29,7-17,12.43-5.12,5.89-9.59,12.59-15.82,17.41-4.22,3.27-9.56,6-15,6.3-.08.31-.16.64-.23,1a24.31,24.31,0,0,0,8.07-1.89c6.83-2.87,12-8,16.68-13.61,4.93-5.87,9.53-12.46,15.95-16.85,5.61-3.83,13.1-6.34,19.83-4.21,6.26,2,9.89,7.78,10.31,14.15a23.32,23.32,0,0,1-6.23,17.28c-5,5.44-11.76,8.82-18.59,11.34a206.65,206.65,0,0,1-24.31,7.05c-8.76,2.05-19.3,3.84-26.65,9.44-.11.54-.21,1.06-.31,1.59,7.35-6.16,18.62-8,27.73-10.14A200.07,200.07,0,0,0,199.25,364C205.79,361.52,212.24,358.3,217.19,353.28Zm-10.31,26.56c-7.06-.47-13.09,4-17.08,9.39-4.15,5.65-6.6,12.3-10.44,18.12h1.16c1.56-2.45,2.91-5.06,4.22-7.57,3.39-6.58,7.12-13.94,14.09-17.34a15,15,0,0,1,10.68-1.2,11.63,11.63,0,0,1,7.15,6.64c2.68,6.09,1.66,12.88,2,19.33v0h1c-.3-5.27.24-10.59-.91-15.81C217.45,385.38,213.42,380.28,206.88,379.84ZM279.68,403c-2.4-6.53-2.42-13.63-2.09-20.48.8-17.19,4.18-34.55,1.48-51.72-2.06-13.16-7.72-26.51-18.87-34.47-5.66-4-13.43-6.64-19.88-2.8-5.47,3.23-8.33,9.76-8.41,15.94-.08,8,3.64,15.46,7.55,22.21s8.3,13,12.21,19.65,7.22,13.52,8.68,21a48.34,48.34,0,0,1-.67,21.07A49.88,49.88,0,0,1,254,407.14h1.17c.53-.89,1-1.81,1.49-2.72a50.27,50.27,0,0,0,2.57-40c-5.28-14.54-15.89-26.2-22.44-40.09-3.35-7.09-5.52-15.54-2-23A15.62,15.62,0,0,1,241.4,294a14.43,14.43,0,0,1,11.31-.53c6.92,2.26,12.68,7.84,16.65,13.78a56.25,56.25,0,0,1,7.85,19.21c3.68,16.69.78,33.85-.41,50.64-.52,7.25-1,14.66.58,21.83a27.94,27.94,0,0,0,3,8.12h1.28A20.76,20.76,0,0,1,279.68,403ZM262.26,279.17c3.35,6.81,10.15,10.5,16.9,13.27,2.5,1,5,2,7.5,3-.06-.35-.14-.69-.2-1-3.92-1.66-7.92-3.15-11.74-5.07-6.52-3.27-13.25-9.17-13.16-17.1.09-7.28,6.79-12.44,13.42-13.76a22.31,22.31,0,0,1,3.21-.39c-.08-.29-.16-.58-.23-.87a20.36,20.36,0,0,0-12.36,4.79A14,14,0,0,0,262.26,279.17Z" style="fill: rgb(255, 255, 255); transform-origin: 216.97px 308.035px;" id="elhwjriu3e41l" class="animable"></path><path d="M204.7,220.69c-46.75,35.89-95.5,96.82-96.23,132-.72,34.74,18.79,31.28,22.08,30.26,34.74-10.82,76.61-107.18,92.1-146.43C238,197.56,216.26,211.81,204.7,220.69Z" style="fill: rgb(247, 169, 160); transform-origin: 168.199px 297.103px;" id="el1rxxm4m6zolg" class="animable"></path><path d="M129.59,290.7l54.28,30.78s35.21-62.34,43.58-91.38-3.37-28.41-29.57-6.17S129.59,290.7,129.59,290.7Z" style="fill: rgb(43, 255, 39); transform-origin: 179.853px 264.604px;" id="elt7e7002hang" class="animable"></path><path d="M141,282.51c20.88,14.67,41.2,24.33,45.26,26.77.19.12.36-.21.16-.31-4.11-2.19-26.36-16.59-45.25-26.81C141,282,140.82,282.36,141,282.51Z" style="fill: rgb(38, 50, 56); transform-origin: 163.717px 295.713px;" id="elvkbltlv5u1" class="animable"></path><path d="M180.38,319.36a31.7,31.7,0,0,1,3.27,1.46c5.22-10.37,4.27-8,9.58-18.32q3.92-7.59,7.81-15.18c2.7-5.26,5.12-10.75,8.1-15.86a.13.13,0,0,1,.24.12c-1.73,5-4.07,9.82-6.29,14.63.49-.75,1-1.51,1.49-2.23,1.2-1.61,2.37-3.22,3.44-4.92.16-.27.6-.05.43.21-1,1.62-1.91,3.29-2.8,5s-1.88,3.32-2.89,5-2,3.07-3.13,4.57l-.39.55c-1.42,3-2.8,6-4.29,9-5.22,10.43-10.6,18.63-10.78,18.58a29.46,29.46,0,0,1-3.93-2.28C180.08,319.55,180.23,319.35,180.38,319.36Z" style="fill: rgb(38, 50, 56); transform-origin: 194.783px 296.678px;" id="elzfz4p1i5zjk" class="animable"></path><path d="M342.14,384.61c-16.09-2.36-25.2-32.26-43.07-79.85-3.13-8.36,38.42-56.18,44.06-48.49,7.11,9.69,25.94,63.43,27.82,78C374.65,363.1,360.93,387.35,342.14,384.61Z" style="fill: rgb(247, 169, 160); transform-origin: 335.229px 320.129px;" id="el4z5cps0234y" class="animable"></path><path d="M317.39,352.92c-3.67-7.78-6.95-15.73-10.16-23.7-3-8.05-6.4-16-8.16-24.46,2.52,8.2,6,16.08,9.09,24.09,2.75,7.06,6.7,17,9.23,24.07Z" style="fill: rgb(38, 50, 56); transform-origin: 308.23px 328.84px;" id="elwtioav1fz6h" class="animable"></path><path d="M358,290.78c-2.25-16.34-6.86-39.13-12.7-43.9-6.13-5-28.38-21.76-34.81-24s-35.07-13.13-40.33-10.08c-4.21,2.43.77,13.51,14.41,18.83,12,4.66,18.15,9,21.57,10.5S318.08,255,315.79,260c-1.36,2.95-9.94,6.41-15.28,4s-6.66-13-12.76-18-16.86-4.38-17.48-1.48,2.93,4.27,8.43,14.14c3.54,6.35,3.78,21.59,11.81,32.52,4,5.49,11.06,20.1,11.06,20.1Z" style="fill: rgb(247, 169, 160); transform-origin: 313.354px 261.773px;" id="ela0lfswrgs1" class="animable"></path><path d="M282.06,241.5a10.58,10.58,0,0,1-5.34-2.42,4.09,4.09,0,0,1-1.25-3.54,2,2,0,0,1,.53-1.31c.1-.07-.06-.21-.11-.1a6.14,6.14,0,0,1-.49.65,2.77,2.77,0,0,0-.31.62,3.36,3.36,0,0,0-.23,1.33,4.37,4.37,0,0,0,1.06,2.71c1.52,1.82,3.87,2.3,6.13,2.22A.08.08,0,0,0,282.06,241.5Z" style="fill: rgb(38, 50, 56); transform-origin: 278.497px 237.879px;" id="el2e7aydbyp4c" class="animable"></path><path d="M345.34,246.88c-5.19-8.16-18.47-22.86-31.63-27.92-8.89-3.42-39.51,11.47-38.62,17.32s6.12,5.88,13.86,5c2.82-.33,17.74-5.68,20.28-2.55,3.65,4.5,8.29,19.88,8.29,19.88Z" style="fill: rgb(247, 169, 160); transform-origin: 310.205px 238.533px;" id="el7vgrtr7uli" class="animable"></path><path d="M275.85,234c3.79-6.26,12.1-9.6,20.37-12.23.13-.05.2.15.08.19-2.11.67-15.59,6.87-20.36,12.14C275.89,234.16,275.81,234.06,275.85,234Z" style="fill: rgb(38, 50, 56); transform-origin: 286.1px 227.94px;" id="elw588i7vn89m" class="animable"></path><path d="M345.34,246.88c-5.19-8.16-18.47-22.86-31.63-27.92-8.89-3.42-33.12,15.64-32.23,21.49s8.4,6.33,16.71,3.44c2.68-.93,11.68-7.26,14.22-4.13,3.65,4.5,12.56,15.68,12.56,15.68Z" style="fill: rgb(247, 169, 160); transform-origin: 313.398px 236.996px;" id="elksdhrrltfum" class="animable"></path><path d="M319.83,248.52c-.83-1.29-1.11-1.74-2-3s-1.73-2.53-2.67-3.73a11.6,11.6,0,0,0-2.74-2.89,5.93,5.93,0,0,0-3.67-.73c-2.88.27-5.49,2.09-7.93,3.49-2.73,1.57-8.38,4.1-12.72,3.64a8.59,8.59,0,0,1-3.41-.93,5.24,5.24,0,0,1-2.05-1.64c-1.88-3.18.47-6.82,2.88-9.39,4.47-4.8,10.49-8.28,16.32-11.14,1.44-.7,2.89-1.36,4.34-2a13,13,0,0,1,5.25-1.5c3,0,7.94,3,9.47,4,.12.07.2-.12.09-.19-1.85-1.15-6.43-4.91-11.29-4.67a15.24,15.24,0,0,0-5.05,1.7q-2.54,1.09-5,2.34a67.82,67.82,0,0,0-9.26,5.47c-2.77,2-5.71,4.27-7.58,7.15-1.62,2.49-2.11,6-.53,8.66,1.32,2.21,4.15,2.74,5.45,2.91a14,14,0,0,0,3.83,0,60.36,60.36,0,0,0,8.33-2.42c2.63-1,5-2.82,7.72-3.64a5.07,5.07,0,0,1,3.93.26,13.55,13.55,0,0,1,2.93,2.68,41.37,41.37,0,0,1,4.9,5.82C319.78,249.24,320.18,249.05,319.83,248.52Z" style="fill: rgb(38, 50, 56); transform-origin: 301.179px 233.433px;" id="el5fu1bjjim5k" class="animable"></path><path d="M349.19,254c-1.91-3.88-5.11-19.86-8.19-24.77s-17.16-21.86-23.74-21.13c-8.27.91.33,15.82,4.66,22s3.59,16.56,3.59,16.56Z" style="fill: rgb(247, 169, 160); transform-origin: 331.495px 231.039px;" id="elki4e5uqkbfi" class="animable"></path><path d="M315.89,219.87a74.13,74.13,0,0,1,4.23,6.18,48,48,0,0,1,3.7,6.09,21.29,21.29,0,0,1,1.6,6.81c.11,1.15.15,2.29.15,3.45s-.1,2.53-.07,3.79c0,.13-.21.15-.21,0a54.54,54.54,0,0,0-.89-6.86,29.75,29.75,0,0,0-2.07-6.83c-1.93-4.33-4.76-8.19-6.72-12.5C315.53,219.84,315.78,219.73,315.89,219.87Z" style="fill: rgb(38, 50, 56); transform-origin: 320.582px 233.05px;" id="el2ztpxs675hh" class="animable"></path><path d="M325.4,248.36c.2,5.92-2.49,11.58-5.37,16.61-2,3.37-4.73,6.2-6.74,9.55A37.59,37.59,0,0,0,308,290.94a34.12,34.12,0,0,1,7.85-21.75A49.2,49.2,0,0,0,322,259.4c1.64-3.48,3.18-7.14,3.38-11Z" style="fill: rgb(38, 50, 56); transform-origin: 316.705px 269.65px;" id="elg38nhgiglx9" class="animable"></path><path d="M266.38,225.53a75.34,75.34,0,0,1-1.08,7.59,37.37,37.37,0,0,1-1.76,6.68c-1.54,3.9-4.49,7.5-9,8.55a16.1,16.1,0,0,1-12.24-2.62c-3.76-2.48-6.7-6-9.39-9.42-1.67-2.12-3.25-4.29-4.71-6.54-.74-1.13-1.49-2.27-2.18-3.44s-1.31-2.36-2.06-3.48c-.06-.09-.26,0-.2.07,1.46,2.66,5.86,11.07,7.33,13.16,2.68,3.79,5.61,7.67,9.51,10.47a18,18,0,0,0,13.07,3.56,13.26,13.26,0,0,0,10.17-8,27.23,27.23,0,0,0,1.94-7.79c.37-2.93.57-5.89.69-8.84C266.44,225.5,266.39,225.5,266.38,225.53Z" style="fill: rgb(38, 50, 56); transform-origin: 245.109px 236.526px;" id="el0j7ukj8b7fks" class="animable"></path><path d="M250.84,241c-9.9-.28-22.11-18.73-25.37-31.93-.21-.9,11.46-31.62,13.14-37.95.34-1.3,37.18,20.19,37.18,20.19s-7.43,12.23-10.29,23.27C265.27,215.51,260.41,241.25,250.84,241Z" style="fill: rgb(247, 169, 160); transform-origin: 250.629px 206.033px;" id="elo8g6nof2gs" class="animable"></path><path d="M275.78,191.3s-7.42,12.23-10.29,23.28c-.05.22-.36,1.83-.93,4.15C246.14,212,237.2,197.2,233.1,187.2c2.51-7,4.83-13.51,5.5-16.07C239,169.82,275.78,191.3,275.78,191.3Z" style="fill: rgb(38, 50, 56); transform-origin: 254.44px 194.901px;" id="elx9l7swdp0ng" class="animable"></path><path d="M226.6,155s-2.51,9.37-4.34,12.31-10.11,4-10.11,4,7.3,5.49,9.81,5.67,8.16-4.62,8.16-4.62-6.48,8.49-10,7.94c-2.17-.34,5,2,5,2a10.12,10.12,0,0,0,7.17-.93C235.57,179.42,226.6,155,226.6,155Z" style="fill: rgb(38, 50, 56); transform-origin: 222.581px 168.791px;" id="elx69tu46zrb" class="animable"></path><path d="M240.27,127c-8.13,12.87-11.82,55.46-4.29,67.24,10.91,17.08,34.3,24.83,50.22,10.47,15.44-13.91,19.25-69.5,10.33-80.78C283.39,107.36,252.29,108,240.27,127Z" style="fill: rgb(247, 169, 160); transform-origin: 266.575px 162.155px;" id="elyzkqcvf1gr" class="animable"></path><path d="M271.66,155.87a34.48,34.48,0,0,1-3.8.14c-1.46,0-2.62.23-3.91-.58a2,2,0,0,1-.58-2.33c.84-1.65,2.62-2.14,4.38-2.27a7.15,7.15,0,0,1,5,1.36C274.22,153.25,273.37,155.64,271.66,155.87Z" style="fill: rgb(38, 50, 56); transform-origin: 268.358px 153.415px;" id="elm0yhlnfa1c" class="animable"></path><path d="M269.53,165.07c0-.11-.24.1-.25.22-.35,2.86-1.23,6.09-4,6.64-.08,0-.09.16,0,.16C268.54,172.13,269.66,167.84,269.53,165.07Z" style="fill: rgb(38, 50, 56); transform-origin: 267.378px 168.565px;" id="elhjqnuossah" class="animable"></path><path d="M267.44,161.7c-4.53-1-6.3,8.09-2.1,9.07S271.24,162.59,267.44,161.7Z" style="fill: rgb(38, 50, 56); transform-origin: 266.257px 166.233px;" id="elcs1wtgtz3n" class="animable"></path><path d="M285.91,167.83c0-.1.19.18.17.29-.64,2.82-.9,6.15,1.48,7.58.08.05,0,.19-.05.16C284.47,174.81,284.85,170.39,285.91,167.83Z" style="fill: rgb(38, 50, 56); transform-origin: 286.366px 171.836px;" id="eltwn7ya3yl1" class="animable"></path><path d="M289,165.36c4.62.54,3.21,9.74-1.07,9.24S285.14,164.91,289,165.36Z" style="fill: rgb(38, 50, 56); transform-origin: 288.602px 169.982px;" id="elm8hhpeojcjo" class="animable"></path><path d="M293.46,160.67A35.24,35.24,0,0,1,290,159c-1.32-.64-2.43-1-3.2-2.35a2,2,0,0,1,.57-2.33c1.52-1.08,3.33-.69,4.94,0a7.15,7.15,0,0,1,3.78,3.52A2.1,2.1,0,0,1,293.46,160.67Z" style="fill: rgb(38, 50, 56); transform-origin: 291.456px 157.221px;" id="el9xec88ilcbs" class="animable"></path><path d="M262.44,188.1c.55.79,1.05,1.83,2.06,2.12a7.76,7.76,0,0,0,3.18-.12.1.1,0,0,1,.09.17,3.89,3.89,0,0,1-3.89.84,3.09,3.09,0,0,1-1.74-2.94C262.13,188,262.36,188,262.44,188.1Z" style="fill: rgb(38, 50, 56); transform-origin: 264.968px 189.672px;" id="el00oek5yridtw" class="animable"></path><path d="M267.06,180.2a9.76,9.76,0,0,0,5.6,5.53,12.19,12.19,0,0,0,3.44.83,3.07,3.07,0,0,0,.67.05c.21,0,.41,0,.64,0a.72.72,0,0,0,.69-.52v0a2.58,2.58,0,0,0,0-.29v0l0-.25c.48-2.17.91-5.52.91-5.52.72.55,4.43,3.16,4.59,2,1.26-9.54,2.66-20.14,1.91-29.9a.27.27,0,0,0-.53,0c-1.58,9.11-1.54,18.44-3,27.63-1.2-.75-3.14-2.07-4.28-2.26-.33,0-.72,6.5-1,7.45a.55.55,0,0,1,0,.1c-3.76-.24-6.3-1.88-9.38-5C267.19,179.79,266.93,179.94,267.06,180.2Z" style="fill: rgb(38, 50, 56); transform-origin: 276.373px 169.262px;" id="elfxxxe3jdpae" class="animable"></path><path d="M231.24,160.52c7.65.36,19.06-21.83,19.06-21.83l-3,13.3s6.83-2.52,11.29-7.44c3.18-3.5,4.56-9.45,4.85-12.5,0,0,5,10.7,13.1,16,3,2,27.17,10,27.67,8.49,1.51-4.46-2.63-23.65-7.3-29.83-5.39-7.11-13.82-15.09-30.11-14.42s-23.19,8.66-27.74,15.13S228.43,160.39,231.24,160.52Z" style="fill: rgb(38, 50, 56); transform-origin: 267.526px 136.387px;" id="elwaumad46py" class="animable"></path><path d="M240,164.69s-5.77-15.57-12.6-13.85-4.91,22.6,1.42,27a7.39,7.39,0,0,0,10.57-1.33Z" style="fill: rgb(247, 169, 160); transform-origin: 231.548px 165.095px;" id="elulfgunmgii" class="animable"></path><path d="M228.1,156.81c-.11,0-.17.12-.09.18,4.4,3.28,5.8,8.51,6.38,13.71-1-2.2-2.72-3.72-5.62-2.62-.15.06-.08.3.07.3a4.55,4.55,0,0,1,4.43,2.8,22.4,22.4,0,0,1,1.29,4.51c.11.5,1,.47.94-.08a.53.53,0,0,1,0-.13C237.25,169.25,234.67,159.21,228.1,156.81Z" style="fill: rgb(38, 50, 56); transform-origin: 232.003px 166.427px;" id="elczz8xlyojip" class="animable"></path><path d="M286.08,116.14a58.26,58.26,0,0,0-13.91-9.75c-5.72-2.75-25.06-7.58-30.85-5.31s-12.9,19.64-13.89,22.2-5.06,18.65-.64,24.34S240.66,126.8,252.6,121,286.08,116.14,286.08,116.14Z" style="fill: rgb(43, 255, 39); transform-origin: 255.426px 124.453px;" id="elm0ekwfdnld" class="animable"></path><g id="elln7ro68fjgf"><path d="M286.08,116.15s-21.55-1.06-33.48,4.8-21.38,32.36-25.82,26.67c-1.94-2.5-2.33-5.39-2-9.91,3.79-7.4,11-18.45,20.28-24.66,8.7-5.82,20.5-6.29,32.14-3.82A67.09,67.09,0,0,1,286.08,116.15Z" style="opacity: 0.1; transform-origin: 255.377px 128.117px;" class="animable"></path></g><path d="M223.06,164c2.88-6.94,16.46-23.57,27.69-31.95s35.65-7.32,38.71-6.1c7.42,3,9.23,6.11,10.65,5.83s-4.47-8.56-6.18-10.55-6.43-6.9-9.74-7.92-24.28-5.77-34.54.42-28.79,27-28.94,33.81c0,1.64,1.62,3.26,1.55,5.58-.1,3.05-.59,6.45-.4,8.67C222,163.56,222.81,164.59,223.06,164Z" style="fill: rgb(43, 255, 39); transform-origin: 260.519px 137.387px;" id="eloky4acea4zl" class="animable"></path><path d="M254.13,127.71a37.66,37.66,0,0,1-3.72-5.24,28.11,28.11,0,0,1-2.71-5.9.12.12,0,1,0-.24.05,20.92,20.92,0,0,0,2.15,6.32,17.85,17.85,0,0,0,4.23,5.08C254,128.18,254.28,127.9,254.13,127.71Z" style="fill: rgb(38, 50, 56); transform-origin: 250.815px 122.27px;" id="el734oqgrwz6" class="animable"></path><path d="M225.36,156.86a17.34,17.34,0,0,0-.29-1.73,9.33,9.33,0,0,1-.08-2,16.63,16.63,0,0,0,.35-3.72,14.24,14.24,0,0,0-.88-2.92,5,5,0,0,1-.44-3.36.12.12,0,0,0-.23-.08c-.73,2.16.21,4.17.55,6.3.22,1.36-.25,2.66-.26,4A5.76,5.76,0,0,0,225,157C225.08,157.12,225.37,157.06,225.36,156.86Z" style="fill: rgb(38, 50, 56); transform-origin: 224.44px 150.015px;" id="elbdk4mggnz7f" class="animable"></path><path d="M230.38,150a31.08,31.08,0,0,1-1.19-3.08,24.72,24.72,0,0,1-.64-3.17c-.15-1.06-.21-2.12-.34-3.17-.15-1.25-.45-2.49-.54-3.74,0-.16-.25-.11-.24,0,.09,1.3,0,2.61,0,3.91a25.41,25.41,0,0,0,.38,3.36,17.11,17.11,0,0,0,.83,3.12,8,8,0,0,0,1.61,2.79A.07.07,0,0,0,230.38,150Z" style="fill: rgb(38, 50, 56); transform-origin: 228.905px 143.397px;" id="el532o25k9085" class="animable"></path><path d="M235.28,143.9a21.27,21.27,0,0,1-2.41-5.66c-.5-2-.88-3.94-1.25-5.91,0-.14-.25-.13-.24,0a25.49,25.49,0,0,0,.65,6.22,13.21,13.21,0,0,0,1.06,2.85,14.44,14.44,0,0,0,2,2.63C235.16,144.14,235.36,144,235.28,143.9Z" style="fill: rgb(38, 50, 56); transform-origin: 233.337px 138.149px;" id="el0is7cl4zl4bv" class="animable"></path><path d="M240.32,138.18a7.4,7.4,0,0,1-1.25-2.53c-.35-1-.68-2-1-3s-.59-2-.87-2.93a7.28,7.28,0,0,1-.41-3,.13.13,0,0,0-.24-.06,7.69,7.69,0,0,0-.11,3.06,20,20,0,0,0,.68,3.32,27.44,27.44,0,0,0,1.17,3.13,4.79,4.79,0,0,0,1.77,2.33C240.25,138.53,240.46,138.34,240.32,138.18Z" style="fill: rgb(38, 50, 56); transform-origin: 238.351px 132.551px;" id="elveb272tb7m8" class="animable"></path><path d="M245.17,130.42c-.45-.87-.88-1.74-1.26-2.64s-.7-1.81-1-2.72-.69-1.93-1-2.9a.12.12,0,1,0-.24,0,18.2,18.2,0,0,0,.45,3,21,21,0,0,0,.95,2.87,22.15,22.15,0,0,0,1.27,2.7,7.91,7.91,0,0,0,1.77,2.39.18.18,0,0,0,.28-.18A15.35,15.35,0,0,0,245.17,130.42Z" style="fill: rgb(38, 50, 56); transform-origin: 244.031px 127.596px;" id="elp2epd1ut4p" class="animable"></path><path d="M260.93,125.49c-.41-1.11-.81-2.19-1.32-3.25a32.16,32.16,0,0,0-1.76-3.15,31.65,31.65,0,0,0-4.28-5.56c-.09-.09-.29,0-.21.13,2.41,4,5,7.91,7.34,11.94A.13.13,0,0,0,260.93,125.49Z" style="fill: rgb(38, 50, 56); transform-origin: 257.138px 119.573px;" id="elgwunlbh3aju" class="animable"></path><path d="M267.26,120.84a15.9,15.9,0,0,0-1.65-3.1,34,34,0,0,0-5-5.42c-.12-.1-.3,0-.19.16,1.43,1.84,2.9,3.66,4.23,5.58a31.93,31.93,0,0,1,1.84,2.93c.55,1,.87,2.13,1.37,3.16a.1.1,0,0,0,.18,0A8.76,8.76,0,0,0,267.26,120.84Z" style="fill: rgb(38, 50, 56); transform-origin: 264.213px 118.243px;" id="eluz8k6x319qo" class="animable"></path><path d="M274.11,120a16.38,16.38,0,0,0-1.47-3,19.22,19.22,0,0,0-4.17-4.78c-.11-.09-.26.08-.17.19a37,37,0,0,1,3.71,5.18c.55.92,1.05,1.87,1.55,2.81s.84,2,1.44,2.88c.05.08.15,0,.14-.06A17.1,17.1,0,0,0,274.11,120Z" style="fill: rgb(38, 50, 56); transform-origin: 271.707px 117.754px;" id="ellh6df784ra" class="animable"></path><path d="M279.57,117.91c-.54-.86-1.13-1.68-1.72-2.51a9.63,9.63,0,0,0-2-2.21c-.12-.09-.24.07-.17.18,1.07,1.64,2.11,3.31,3.14,5a25.19,25.19,0,0,1,2,5,.09.09,0,0,0,.16,0A9.55,9.55,0,0,0,279.57,117.91Z" style="fill: rgb(38, 50, 56); transform-origin: 278.325px 118.291px;" id="elu9a5clc2oqj" class="animable"></path><path d="M285.29,118.54a15.66,15.66,0,0,0-3.76-4.54c-.1-.09-.27.09-.17.18a19.16,19.16,0,0,1,3.24,4.69,26.19,26.19,0,0,1,2,5.36c0,.08.17.09.17,0A12.83,12.83,0,0,0,285.29,118.54Z" style="fill: rgb(38, 50, 56); transform-origin: 284.05px 119.135px;" id="elsbtestufzg" class="animable"></path><path d="M291.22,124.06a9.48,9.48,0,0,0-.25-1.29,12.23,12.23,0,0,0-.94-2.46,26.7,26.7,0,0,0-3-4.45c-.09-.13-.29,0-.19.16a21.53,21.53,0,0,1,2.71,4.45,17.35,17.35,0,0,1,.9,2.4c.12.4.21.81.29,1.22a6,6,0,0,0,.26,1.2.12.12,0,0,0,.23,0A3.57,3.57,0,0,0,291.22,124.06Z" style="fill: rgb(38, 50, 56); transform-origin: 289.046px 120.591px;" id="elcvixlq8dxia" class="animable"></path><path d="M295.37,125.87a17.67,17.67,0,0,0-.77-2,18.35,18.35,0,0,0-1-1.92c-.39-.63-.8-1.25-1.16-1.9a.13.13,0,1,0-.21.14,12.4,12.4,0,0,1,1,2c.27.65.56,1.29.84,1.93s.55,1.29.82,1.94.48,1.37.82,2a.1.1,0,0,0,.19-.06A9.28,9.28,0,0,0,295.37,125.87Z" style="fill: rgb(38, 50, 56); transform-origin: 294.045px 124.043px;" id="elnqi8i2kkovb" class="animable"></path><path d="M274,248.28l-24.1,70.64c-.94,2.05,0,3.86,2.06,4L289.18,326a6,6,0,0,0,5.48-3.41L318.76,252c.94-2.06,0-3.86-2.06-4l-37.22-3.06A6,6,0,0,0,274,248.28Z" style="fill: rgb(55, 71, 79); transform-origin: 284.33px 285.47px;" id="ell1y3e5jswfo" class="animable"></path><path d="M278.42,248.6l-24.09,70.64c-1,2.05,0,3.86,2,4l37.22,3.06a6,6,0,0,0,5.48-3.41l24.1-70.64c.94-2.06,0-3.86-2.06-4l-37.22-3.06A6.06,6.06,0,0,0,278.42,248.6Z" style="fill: rgb(69, 90, 100); transform-origin: 288.717px 285.745px;" id="elci988cgezdt" class="animable"></path><path d="M288.36,252.74a3.17,3.17,0,1,1-2.83-3.49A3.17,3.17,0,0,1,288.36,252.74Z" style="fill: rgb(38, 50, 56); transform-origin: 285.208px 252.404px;" id="el3uzibsn7sjf" class="animable"></path><path d="M121.6,382.05c14.85,5,36.14-3.16,92.37-29.66,7.78-3.67-3.33-65.53-11.84-62.05-10.72,4.4-51.36,23.77-54.15,25.57C124.42,331,111.53,378.63,121.6,382.05Z" style="fill: rgb(247, 169, 160); transform-origin: 167.375px 336.82px;" id="elfi3e7ujloyr" class="animable"></path><path d="M181.17,304.38s17.83-17,30-23c16.24-8.08,33.59-8.36,40.87-8,15.19.67,51.47,12.79,49.8,23.85-1.51,10-38-4.26-38-4.26s39.56,8.41,35.53,20.13S254,305.78,254,305.78s40.46,9.55,34.39,21c-4.59,8.63-43-6.44-43-6.44s34.72,8.46,30.38,17.54c-4.79,10-41.14-1.65-41.14-1.65-14.91,21.23-30.7,25.24-42.26,26.76C189.51,363.33,181.17,304.38,181.17,304.38Z" style="fill: rgb(247, 169, 160); transform-origin: 241.533px 318.138px;" id="eloknsazzzhn" class="animable"></path><path d="M250.35,289.12c4.68.82,9.43,1.61,14,2.85s9.15,2.63,13.61,4.28c10.94,4.06,17.15,8.31,16.74,8.09-9.75-5.22-26.13-9.89-30.73-11.12s-9.11-2.7-13.69-3.93C250.18,289.26,250.24,289.1,250.35,289.12Z" style="fill: rgb(38, 50, 56); transform-origin: 272.474px 296.733px;" id="el7rc1i61sb3r" class="animable"></path><path d="M245.6,305.63c5.93,1.3,11.87,2.38,17.75,3.95s11.26,3.55,17,5.51c.44.15.21.34-.23.2-5.81-1.72-11.3-2.88-17.12-4.54s-11.58-3.54-17.44-5C245.46,305.74,245.51,305.61,245.6,305.63Z" style="fill: rgb(38, 50, 56); transform-origin: 263.046px 310.483px;" id="elnzxrvscanbn" class="animable"></path><path d="M239,319.06c9.17,1.53,18,4.75,26.68,8.12.43.17.11.38-.34.23-8.82-2.86-15.71-5.18-26.4-8C238.75,319.33,238.77,319,239,319.06Z" style="fill: rgb(38, 50, 56); transform-origin: 252.347px 323.257px;" id="el3u2kbt1xllw" class="animable"></path><path d="M163.58,308.16c-4.22,2.28-8.44,4.56-12.56,7s-8.25,4.86-11.4,8.46a92.4,92.4,0,0,0-12.18,17.63,64.23,64.23,0,0,0-3.13,6.47,73.19,73.19,0,0,1,15.85-26.08c6.79-6,15.27-9.74,23.42-13.5Z" style="fill: rgb(38, 50, 56); transform-origin: 143.945px 327.93px;" id="elbxa31awvq18" class="animable"></path></g><g id="freepik--speech-bubbles--inject-73" class="animable animator-active" style="transform-origin: 254.045px 150.37px;"><polygon points="255.99 38.18 255.99 88.28 263.02 88.28 263.02 100.44 275.17 88.28 341.86 88.28 341.86 38.18 255.99 38.18" style="fill: rgb(255, 255, 255); transform-origin: 298.925px 69.31px;" id="el326ngjtaycw" class="animable"></polygon><path d="M256,38.18l.15,25.12q.12,12.53.13,25L256,88h7.32v.29l0,12.15-.55-.22L274.91,88l.11-.1h.15c19.63,0,47.33-.15,66.69-.12l-.48.48.12-50.1.36.37c-21.41,0-64.47-.23-85.87-.37Zm0,0c21.39-.13,64.47-.34,85.87-.36h.36v.36l.12,50.1v.48h-.48c-19.26.07-47.14-.11-66.69-.11l.26-.11-12.18,12.12-.56.56v-.79l0-12.15.3.3-7,0h-.28c-.05-14.68.24-35.51.28-50.38Z" style="fill: rgb(38, 50, 56); transform-origin: 299.032px 69.52px;" id="elbd7xzein2xb" class="animable"></path><path d="M315.16,63.23a4.07,4.07,0,1,0,4.07-4.07A4.07,4.07,0,0,0,315.16,63.23Z" style="fill: rgb(38, 50, 56); transform-origin: 319.23px 63.23px;" id="elffswnxr3cz" class="animable"></path><path d="M294.85,63.23a4.07,4.07,0,1,0,4.07-4.07A4.07,4.07,0,0,0,294.85,63.23Z" style="fill: rgb(38, 50, 56); transform-origin: 298.92px 63.23px;" id="elkd1183840cq" class="animable"></path><path d="M274.55,63.23a4.07,4.07,0,1,0,4.07-4.07A4.07,4.07,0,0,0,274.55,63.23Z" style="fill: rgb(38, 50, 56); transform-origin: 278.62px 63.23px;" id="el1pe7qbczvbm" class="animable"></path><polygon points="229.36 199.9 229.36 250 222.33 250 222.33 262.15 210.18 250 123.49 250 123.49 199.9 229.36 199.9" style="fill: rgb(255, 255, 255); transform-origin: 176.425px 231.025px;" id="elc9lgupo3e" class="animable"></polygon><path d="M229.36,199.9c0,15,.33,35.63.28,50.38h-.28l-7,0,.29-.3,0,12.15v.79l-.55-.56-12.18-12.12c-12.79.34-51.38.1-64.76.23l-21.67,0H123V250l.1-50.1v-.37h.37c26.39.05,79.49.21,105.87.37Zm0,0c-26.38.17-79.5.33-105.87.37l.37-.37L124,250l-.46-.47c10.82,0,32.53,0,43.34,0,.48.11,43.23-.12,43.6.19l12.13,12.18-.56.23L222,250v-.3h.3l7,0-.28.28q0-12.47.12-25l.16-25.12Z" style="fill: rgb(38, 50, 56); transform-origin: 176.323px 231.225px;" id="el3mhnzsjqdc8" class="animable"></path><rect x="134.29" y="210.17" width="50.49" height="2.56" style="fill: rgb(166, 166, 166); transform-origin: 159.535px 211.45px;" id="elejckfd2264" class="animable"></rect><path d="M134.29,219.69c26.49-.67,54.48-.65,81,0-26.52.66-54.49.68-81,0Z" style="fill: rgb(235, 235, 235); transform-origin: 174.79px 219.694px;" id="el7hsz8o7l8mv" class="animable"></path><path d="M134.29,226.5c27.12-.65,57.13-.65,84.26,0-27.13.66-57.13.66-84.26,0Z" style="fill: rgb(235, 235, 235); transform-origin: 176.42px 226.504px;" id="el5a23pgl6bgi" class="animable"></path><path d="M134.29,233.32c21.86-.68,43.87-.68,65.74,0-21.87.67-43.87.67-65.74,0Z" style="fill: rgb(235, 235, 235); transform-origin: 167.16px 233.316px;" id="elk41qvxoqvz" class="animable"></path><path d="M134.29,240.13c21.86-.67,43.87-.67,65.74,0-21.87.67-43.87.67-65.74,0Z" style="fill: rgb(235, 235, 235); transform-origin: 167.16px 240.13px;" id="elqnzenio663" class="animable"></path><polygon points="307.45 102.8 307.45 156.9 315.04 156.9 315.04 170.03 328.16 156.9 432.58 156.9 432.58 102.8 307.45 102.8" style="fill: rgb(255, 255, 255); transform-origin: 370.015px 136.415px;" id="elynkhczh37op" class="animable"></polygon><path d="M307.45,102.8l.15,27.11c.08,9,.12,18,.13,27l-.28-.28h7.89v.29l0,13.13-.55-.23,13.1-13.15.1-.11h.15c30.75-.06,74.11-.17,104.42-.1l-.46.46.09-54.1.37.37c-31.19,0-93.94-.23-125.13-.37Zm0,0c31.18-.14,93.95-.35,125.13-.37H433v.37l.09,54.1v.46h-.47c-30.15.1-73.81-.09-104.42-.1l.26-.11-13.15,13.1-.56.55V170l0-13.13.3.3-7.59,0h-.28c-.08-15.84.26-38.34.28-54.38Z" style="fill: rgb(38, 50, 56); transform-origin: 370.129px 136.615px;" id="elfvb4qtlz725" class="animable"></path><rect x="317.12" y="114.31" width="30.84" height="30.84" style="fill: rgb(69, 90, 100); transform-origin: 332.54px 129.73px;" id="elokwwqhjr8m" class="animable"></rect><polygon points="328.12 135.26 328.12 124.21 339.47 129.73 328.12 135.26" style="fill: rgb(255, 255, 255); transform-origin: 333.795px 129.735px;" id="elue7y23m04" class="animable"></polygon><rect x="357.56" y="114.31" width="56.14" height="2.56" style="fill: rgb(166, 166, 166); transform-origin: 385.63px 115.59px;" id="elzf7jx53479c" class="animable"></rect><path d="M357.56,123.83c20.28-.67,40.7-.67,61,0-20.28.67-40.7.67-61,0Z" style="fill: rgb(235, 235, 235); transform-origin: 388.06px 123.83px;" id="el6c1lcm0db8l" class="animable"></path><path d="M357.56,130.64c21.36-.67,42.88-.67,64.25,0-21.37.67-42.88.67-64.25,0Z" style="fill: rgb(235, 235, 235); transform-origin: 389.685px 130.64px;" id="elf78a8x9d8tl" class="animable"></path><path d="M357.56,137.45c15.2-.67,30.52-.67,45.73,0-15.21.67-30.53.67-45.73,0Z" style="fill: rgb(235, 235, 235); transform-origin: 380.425px 137.45px;" id="elgfm30q6py55" class="animable"></path><path d="M357.56,144.26c15.2-.67,30.52-.67,45.73,0-15.21.68-30.53.68-45.73,0Z" style="fill: rgb(235, 235, 235); transform-origin: 380.425px 144.264px;" id="elnhqpe7hnn" class="animable"></path><polygon points="200.56 121.39 200.56 175.5 192.96 175.5 192.96 188.62 179.84 175.5 75.42 175.5 75.42 121.39 200.56 121.39" style="fill: rgb(255, 255, 255); transform-origin: 137.99px 155.005px;" id="elsh2fe1pv3ca" class="animable"></polygon><path d="M200.55,121.39c0,16.14.35,38.47.28,54.39h-.28l-7.59,0,.3-.3,0,13.12v.79l-.56-.56-13.15-13.09.26.1c-30.76,0-74.1.21-104.42.1H75v-.46L75,121.39V121h.38c31.2.06,94,.21,125.13.37Zm0,0c-31.18.17-94,.33-125.13.38l.37-.38.09,54.11-.46-.46c30.14-.07,73.82.05,104.42.1H180l.1.1,13.1,13.15-.55.23,0-13.12v-.3h.3l7.59,0-.28.28q0-13.47.13-27l.15-27.12Z" style="fill: rgb(38, 50, 56); transform-origin: 137.92px 155.195px;" id="elc7x1abiygr" class="animable"></path><rect x="86.19" y="132.91" width="30.84" height="30.84" style="fill: rgb(43, 255, 39); transform-origin: 101.61px 148.33px;" id="eli215sk0vaj9" class="animable"></rect><g id="el4k1x6zx8md4"><path d="M90.34,142.62a3.56,3.56,0,1,0,2.8-2.8A3.56,3.56,0,0,0,90.34,142.62Z" style="fill: rgb(255, 255, 255); opacity: 0.2; transform-origin: 93.8321px 143.312px;" class="animable"></path></g><g id="ely35n8fpjt8"><polygon points="94.74 163.75 117.04 163.75 105.89 150.19 94.74 163.75" style="fill: rgb(255, 255, 255); opacity: 0.2; transform-origin: 105.89px 156.97px;" class="animable"></polygon></g><polygon points="86.19 163.75 104.59 163.75 95.39 154.92 86.19 163.75" style="fill: rgb(43, 255, 39); transform-origin: 95.39px 159.335px;" id="elhi7mc1o9gmr" class="animable"></polygon><g id="el63gfbbo7m1"><polygon points="86.19 163.75 104.59 163.75 95.39 154.92 86.19 163.75" style="fill: rgb(255, 255, 255); opacity: 0.5; transform-origin: 95.39px 159.335px;" class="animable"></polygon></g><rect x="126.63" y="132.91" width="56.14" height="2.56" style="fill: rgb(166, 166, 166); transform-origin: 154.7px 134.19px;" id="el11frdx0nqut" class="animable"></rect><path d="M126.63,142.43c20.28-.68,40.7-.68,61,0-20.29.67-40.71.67-61,0Z" style="fill: rgb(235, 235, 235); transform-origin: 157.13px 142.426px;" id="el9l43cdkkcf" class="animable"></path><path d="M126.63,149.24c21.37-.67,42.88-.67,64.25,0-21.37.67-42.88.67-64.25,0Z" style="fill: rgb(235, 235, 235); transform-origin: 158.755px 149.24px;" id="elpofi9bboccb" class="animable"></path><path d="M126.63,156.05c15.2-.67,30.52-.67,45.73,0-15.21.67-30.53.67-45.73,0Z" style="fill: rgb(235, 235, 235); transform-origin: 149.495px 156.05px;" id="elv8qowg4ymue" class="animable"></path><path d="M126.63,162.86c15.2-.67,30.52-.67,45.73,0-15.21.67-30.53.67-45.73,0Z" style="fill: rgb(235, 235, 235); transform-origin: 149.495px 162.86px;" id="el5yqojmy166b" class="animable"></path><polygon points="317.48 174.45 317.48 228.55 325.08 228.55 325.08 241.68 338.2 228.55 368.7 228.55 368.7 174.45 317.48 174.45" style="fill: rgb(255, 255, 255); transform-origin: 343.09px 208.065px;" id="els9n5rkruxm" class="animable"></polygon><path d="M317.48,174.45l.3,54.1-.3-.29,7.6,0h.32v.32l.05,13.13-.63-.26,13.08-13.17.12-.12,30.68-.06-.48.48c0-13.47,0-40.62.08-54.1l.4.4-51.22-.4Zm0,0c13-.12,38.65-.35,51.62-.4,0,13.7.09,40.81.08,54.5V229h-.48L338.2,229l.3-.12-13.16,13.08-.64.63v-.89l0-13.13.33.33-7.6,0h-.3v-.3l.3-54.1Z" style="fill: rgb(38, 50, 56); transform-origin: 343.155px 208.32px;" id="eljetwds3aad" class="animable"></path><rect x="327.16" y="185.96" width="30.84" height="30.84" style="fill: rgb(43, 255, 39); transform-origin: 342.58px 201.38px;" id="elnl5ier6u5sf" class="animable"></rect><path d="M335.22,198.17A7.18,7.18,0,1,0,342.4,191,7.18,7.18,0,0,0,335.22,198.17Z" style="fill: rgb(255, 255, 255); transform-origin: 342.4px 198.18px;" id="el0e4y3oev0osk" class="animable"></path><path d="M354.75,216.81H330a12.41,12.41,0,0,1,24.71,0Z" style="fill: rgb(255, 255, 255); transform-origin: 342.375px 211.189px;" id="el4gfs29u86p3" class="animable"></path><polygon points="216.92 46.68 216.92 100.78 209.32 100.78 209.32 113.91 196.2 100.78 165.7 100.78 165.7 46.68 216.92 46.68" style="fill: rgb(255, 255, 255); transform-origin: 191.31px 80.295px;" id="elgvyequ7anue" class="animable"></polygon><path d="M216.92,46.68l.3,54.1v.3h-.3l-7.59,0,.32-.33,0,13.13v.89l-.64-.63L195.9,101.08l.3.13-30.5.06h-.48v-.49c0-13.69,0-40.82.08-54.5,13,.08,38.65.25,51.62.4Zm0,0-51.22.4.4-.4c.06,13.49.08,40.62.09,54.1l-.49-.48c.19,0,30.52.06,30.68.06l.12.12,13.09,13.16-.64.27.05-13.13v-.32h.33l7.59,0c-.8,1.83.25-54.18,0-53.8Z" style="fill: rgb(38, 50, 56); transform-origin: 191.22px 80.525px;" id="elcs2aqi6fbek" class="animable"></path><g id="elntd150s0zkp"><rect x="176.4" y="58.19" width="30.84" height="30.84" style="fill: rgb(69, 90, 100); transform-origin: 191.82px 73.61px; transform: rotate(180deg);" class="animable"></rect></g><path d="M198.28,70c-.32-3.23-2.55-6.44-6.46-6.44s-6.13,3.21-6.45,6.44c-.49,5,2.86,9.51,6.45,13.63C195.42,79.53,198.78,75,198.28,70Zm-6.46,3.59a3.54,3.54,0,1,1,3.55-3.54A3.53,3.53,0,0,1,191.82,73.61Z" style="fill: rgb(255, 255, 255); transform-origin: 191.826px 73.595px;" id="elg128lyj5uzs" class="animable"></path></g><g id="freepik--Table--inject-73" class="animable" style="transform-origin: 250px 456.83px;"><path d="M447.61,456.83c-126.6.61-268.62.62-395.22,0,126.6-.62,268.62-.61,395.22,0Z" style="fill: rgb(38, 50, 56); transform-origin: 250px 456.83px;" id="elznys8lpzv0l" class="animable"></path></g><defs>     <filter id="active" height="200%">         <feMorphology in="SourceAlpha" result="DILATED" operator="dilate" radius="2"></feMorphology>                <feFlood flood-color="#32DFEC" flood-opacity="1" result="PINK"></feFlood>        <feComposite in="PINK" in2="DILATED" operator="in" result="OUTLINE"></feComposite>        <feMerge>            <feMergeNode in="OUTLINE"></feMergeNode>            <feMergeNode in="SourceGraphic"></feMergeNode>        </feMerge>    </filter>    <filter id="hover" height="200%">        <feMorphology in="SourceAlpha" result="DILATED" operator="dilate" radius="2"></feMorphology>                <feFlood flood-color="#ff0000" flood-opacity="0.5" result="PINK"></feFlood>        <feComposite in="PINK" in2="DILATED" operator="in" result="OUTLINE"></feComposite>        <feMerge>            <feMergeNode in="OUTLINE"></feMergeNode>            <feMergeNode in="SourceGraphic"></feMergeNode>        </feMerge>            <feColorMatrix type="matrix" values="0   0   0   0   0                0   1   0   0   0                0   0   0   0   0                0   0   0   1   0 "></feColorMatrix>    </filter></defs></svg>