<svg class="animated" id="freepik_stories-online-article" xmlns="http://www.w3.org/2000/svg" viewBox="0 0 500 500" version="1.1" xmlns:xlink="http://www.w3.org/1999/xlink" xmlns:svgjs="http://svgjs.com/svgjs"><style>svg#freepik_stories-online-article:not(.animated) .animable {opacity: 0;}svg#freepik_stories-online-article.animated #freepik--Article--inject-62 {animation: 1.6s 1 forwards cubic-bezier(.36,-0.01,.5,1.38) slideUp;animation-delay: 0s;}svg#freepik_stories-online-article.animated #freepik--Character--inject-62 {animation: 1.6s 1 forwards ease-in slideDown;animation-delay: 0s;}svg#freepik_stories-online-article.animated #freepik--speech-bubble--inject-62 {animation: 3s Infinite  linear heartbeat;animation-delay: 0s;}            @keyframes slideUp {                0% {                    opacity: 0;                    transform: translateY(30px);                }                100% {                    opacity: 1;                    transform: inherit;                }            }                    @keyframes slideDown {                0% {                    opacity: 0;                    transform: translateY(-30px);                }                100% {                    opacity: 1;                    transform: translateY(0);                }            }                    @keyframes heartbeat {                0% {                    transform: scale(1);                }                10% {                    transform: scale(1.1);                }                30% {                    transform: scale(1);                }                40% {                    transform: scale(1);                }                50% {                    transform: scale(1.1);                }                60% {                    transform: scale(1);                }                100% {                    transform: scale(1);                }            }        </style><g id="freepik--background-complete--inject-62" class="animable" style="transform-origin: 250.135px 221.485px;"><g id="elc7o2733fbqi"><rect x="392.07" y="376.37" width="35.16" height="11.19" style="fill: rgb(235, 235, 235); transform-origin: 409.65px 381.965px; transform: rotate(180deg);" class="animable"></rect></g><rect x="335.65" y="142.86" width="35.16" height="11.19" style="fill: rgb(235, 235, 235); transform-origin: 353.23px 148.455px;" id="elx8uwfa2pd5i" class="animable"></rect><path d="M411.68,401.67c5.84-.09,20.81-.34,26.45-.41l8.71,0-.46.45,0-11.19.5.5c-5.84,0-20.73-.07-26.37-.15l-8.79-.11.24-.24-.24,11.19Zm0,0-.23-11.19v-.23h.24c4.39-.06,13.2-.16,17.58-.2l17.58-.07h.5v.5l0,11.19v.46h-.45l-8.87,0c-5.6-.06-20.5-.32-26.29-.42Z" style="fill: rgb(235, 235, 235); transform-origin: 429.4px 396.055px;" id="ellklhlnvjy7" class="animable"></path><path d="M252.69,265.69c-5.85.1-20.62.35-26.29.41l-8.86,0h-.46v-.46l0-11.19V254h.51l17.57.07c4.38,0,13.21.13,17.58.19h.25v.23l-.24,11.19Zm0,0-.23-11.19.23.24c-4.38.06-13.19.16-17.58.19l-17.57.07.49-.5,0,11.19-.45-.45,8.71,0c5.57.06,20.68.31,26.44.41Z" style="fill: rgb(235, 235, 235); transform-origin: 235.035px 260.05px;" id="elnuybj1f2v78" class="animable"></path><path d="M233.08,279.8c-5.86.1-20.63.35-26.29.41l-8.87.05h-.45v-.46l-.05-11.19v-.5h.5l17.58.07c4.38,0,13.2.13,17.58.19h.24v.23l-.24,11.19Zm0,0-.24-11.19.24.24c-4.38.06-13.19.15-17.58.19l-17.58.07.5-.5,0,11.19-.46-.45,8.71,0c5.58.06,20.69.31,26.45.41Z" style="fill: rgb(235, 235, 235); transform-origin: 215.37px 274.185px;" id="elhojzxjjx12v" class="animable"></path><rect x="178.39" y="254.5" width="35.16" height="11.19" style="fill: rgb(235, 235, 235); transform-origin: 195.97px 260.095px;" id="elc5ozowpzzbg" class="animable"></rect><g id="el3b21h4gbw2c"><rect x="53.16" y="390.48" width="35.16" height="11.19" style="fill: rgb(235, 235, 235); transform-origin: 70.74px 396.075px; transform: rotate(180deg);" class="animable"></rect></g><g id="elkkip04ifdn"><rect x="72.77" y="44.93" width="35.16" height="11.19" style="fill: rgb(235, 235, 235); transform-origin: 90.35px 50.525px; transform: rotate(180deg);" class="animable"></rect></g><path d="M53.16,70.23c5.84-.1,20.81-.35,26.45-.41l8.71,0-.46.45,0-11.19.5.5c-5.84,0-20.73-.07-26.37-.15l-8.79-.11L53.4,59l-.24,11.19Zm0,0L52.92,59v-.23h.24c4.39-.06,13.19-.16,17.58-.2l17.58-.07h.5V59l0,11.19v.46h-.45l-8.87,0c-5.6-.07-20.51-.32-26.29-.42Z" style="fill: rgb(235, 235, 235); transform-origin: 70.87px 64.575px;" id="elaxtttrdpw78" class="animable"></path><path d="M392.07,56.12c5.84-.1,20.81-.34,26.45-.41l8.71,0-.46.45,0-11.19.5.5-17.58-.07c-4.38,0-13.2-.13-17.58-.19l.24-.24-.24,11.19Zm0,0-.24-11.19V44.7h.24c4.39-.06,13.2-.16,17.58-.2l17.58-.07h.5v.5l-.05,11.19v.46h-.45l-8.87,0c-5.6-.07-20.5-.32-26.29-.42Z" style="fill: rgb(235, 235, 235); transform-origin: 409.78px 50.505px;" id="elhy6jv8jg86m" class="animable"></path><path d="M396.3,154.78H225.86V40.84H396.3Zm-169.44-1H395.3V41.84H226.86Z" style="fill: rgb(235, 235, 235); transform-origin: 311.08px 97.81px;" id="elsit7ba6ijd" class="animable"></path><path d="M234.18,46.17a1.73,1.73,0,1,1-1.73-1.73A1.74,1.74,0,0,1,234.18,46.17Z" style="fill: rgb(166, 166, 166); transform-origin: 232.45px 46.17px;" id="el1zjjq0q9rng" class="animable"></path><path d="M241.24,46.17a1.73,1.73,0,1,1-1.73-1.73A1.74,1.74,0,0,1,241.24,46.17Z" style="fill: rgb(235, 235, 235); transform-origin: 239.51px 46.17px;" id="elrucbyblmd2s" class="animable"></path><path d="M248.3,46.17a1.73,1.73,0,1,1-1.73-1.73A1.73,1.73,0,0,1,248.3,46.17Z" style="fill: rgb(62, 255, 39); transform-origin: 246.57px 46.17px;" id="elr36qgu2705g" class="animable"></path><rect x="226.36" y="50.86" width="169.44" height="1" style="fill: rgb(235, 235, 235); transform-origin: 311.08px 51.36px;" id="elokc1laa9w7" class="animable"></rect><rect x="54.27" y="74.83" width="67.59" height="81.99" style="fill: rgb(235, 235, 235); transform-origin: 88.065px 115.825px;" id="elc1e3y4em3fj" class="animable"></rect><rect x="62" y="82.31" width="52.15" height="67.02" style="fill: rgb(255, 255, 255); transform-origin: 88.075px 115.82px;" id="el6i5ku5p44ui" class="animable"></rect><rect x="62" y="82.31" width="2.03" height="67.02" style="fill: rgb(199, 199, 199); transform-origin: 63.015px 115.82px;" id="el1jjkvmhry8a" class="animable"></rect><rect x="121.87" y="74.83" width="2.03" height="81.99" style="fill: rgb(199, 199, 199); transform-origin: 122.885px 115.825px;" id="elarioxgcgeie" class="animable"></rect><g id="elmrdo3aolici"><rect x="89.24" y="97.81" width="12.3" height="36.63" style="fill: rgb(235, 235, 235); transform-origin: 95.39px 116.125px; transform: rotate(180deg);" class="animable"></rect></g><path d="M107.4,110H73.61v-19H107.4Zm-32.79-1H106.4v-17H74.61Z" style="fill: rgb(235, 235, 235); transform-origin: 90.505px 100.5px;" id="elv6n2mtrel6" class="animable"></path><rect x="94.27" y="276.89" width="67.59" height="81.99" style="fill: rgb(235, 235, 235); transform-origin: 128.065px 317.885px;" id="el85vftfrzv48" class="animable"></rect><rect x="102" y="284.37" width="52.15" height="67.02" style="fill: rgb(255, 255, 255); transform-origin: 128.075px 317.88px;" id="elcjy8z8t1fc" class="animable"></rect><rect x="102" y="284.37" width="2.03" height="67.02" style="fill: rgb(199, 199, 199); transform-origin: 103.015px 317.88px;" id="el02qpvwm3ucci" class="animable"></rect><rect x="161.87" y="276.89" width="2.03" height="81.99" style="fill: rgb(199, 199, 199); transform-origin: 162.885px 317.885px;" id="elpxbd133oues" class="animable"></rect><rect x="119.47" y="299.87" width="12.3" height="36.63" style="fill: rgb(235, 235, 235); transform-origin: 125.62px 318.185px;" id="elo8jtg4gowo" class="animable"></rect><path d="M147.4,312.06H113.61V293.11H147.4Zm-32.79-1H146.4V294.11H114.61Z" style="fill: rgb(235, 235, 235); transform-origin: 130.505px 302.585px;" id="elw93esknv17" class="animable"></path><rect x="74.27" y="176.23" width="67.59" height="81.99" style="fill: rgb(235, 235, 235); transform-origin: 108.065px 217.225px;" id="elwlzcdncpya" class="animable"></rect><rect x="82" y="183.71" width="52.15" height="67.02" style="fill: rgb(255, 255, 255); transform-origin: 108.075px 217.22px;" id="elfr1dquhpe4d" class="animable"></rect><rect x="82" y="183.71" width="2.03" height="67.02" style="fill: rgb(199, 199, 199); transform-origin: 83.015px 217.22px;" id="elwzisxlbpltl" class="animable"></rect><rect x="141.87" y="176.23" width="2.03" height="81.99" style="fill: rgb(199, 199, 199); transform-origin: 142.885px 217.225px;" id="eld801qks4yes" class="animable"></rect><rect x="103.02" y="201.04" width="10.53" height="26.63" style="fill: rgb(235, 235, 235); transform-origin: 108.285px 214.355px;" id="elzimt9rsp6eb" class="animable"></rect><path d="M125.15,236.08H95.85V216.72h29.3Zm-28.3-1h27.3V217.72H96.85Z" style="fill: rgb(219, 219, 219); transform-origin: 110.5px 226.4px;" id="elohis5l8anib" class="animable"></path></g><g id="freepik--Table--inject-62" class="animable" style="transform-origin: 250px 444.836px;"><path d="M45.75,444.84c130.86-.62,277.64-.62,408.5,0-130.86.61-277.64.61-408.5,0Z" style="fill: rgb(38, 50, 56); transform-origin: 250px 444.836px;" id="el9b4ivisuj3h" class="animable"></path></g><g id="freepik--Plant--inject-62" class="animable" style="transform-origin: 419.664px 380.12px;"><path d="M401.86,350.22c15.62,15.29,18.24,38.95,14.95,59.68-.09.47-.81.34-.81-.1,0-4.72.14-9.4.13-14.06-.09-.21-.16-.41-.25-.62-4.07-3-7.82-6.32-10.14-10.91-2.61-5.13-3.64-10.92-5.63-16.27-.19-.52.36-.37.72-.1,9.5,7,12.53,14.55,15.25,24.63a83.63,83.63,0,0,0-1.65-15.7c-2.05-9.56-6.12-19-13-26.14C401.19,350.36,401.59,350,401.86,350.22Z" style="fill: rgb(38, 50, 56); transform-origin: 409.065px 380.174px;" id="elos60dllkfjs" class="animable"></path><path d="M398.92,352c-2.69.09-4.37,4.39-6.46,5.64a2,2,0,0,1-3-.46c-2.08-2.9.77-6.48,3.45-8.47-1.92.78-3.5,2.17-5.57,2.56a1.93,1.93,0,0,1-2.51-1.51c-.91-3.95,4-5.7,7.44-5.79-1.65-1.14-6.37-4.25-3.86-5.79s8.08,2.92,9.89,4.39c2.66,2.15,5.82,5.37,5.94,8.74C404.43,355.25,401,352.83,398.92,352Z" style="fill: rgb(62, 255, 39); transform-origin: 394.484px 347.992px;" id="elkzxq1z9oqi" class="animable"></path><g id="elf89pa0m1jme"><path d="M398.92,352c-2.69.09-4.37,4.39-6.46,5.64a2,2,0,0,1-3-.46c-2.08-2.9.77-6.48,3.45-8.47-1.92.78-3.5,2.17-5.57,2.56a1.93,1.93,0,0,1-2.51-1.51c-.91-3.95,4-5.7,7.44-5.79-1.65-1.14-6.37-4.25-3.86-5.79s8.08,2.92,9.89,4.39c2.66,2.15,5.82,5.37,5.94,8.74C404.43,355.25,401,352.83,398.92,352Z" style="opacity: 0.1; transform-origin: 394.484px 347.992px;" class="animable"></path></g><path d="M399.7,352.66c-3.44-1.56-10,.69-10.6-.61-1.14-2.65,4.14-4.46,7-4.81-2.63-.71-7.65-1.85-7.5-4.37.19-3.09,7.71-.44,11.52,2.48,4.79,3.68,4.76,7.22,4,7.93C403,354.26,400.27,352.92,399.7,352.66Z" style="fill: rgb(62, 255, 39); transform-origin: 396.547px 347.561px;" id="ele39om1imaai" class="animable"></path><path d="M437.43,348.71c-16.19,14.68-19.71,38.23-17.21,59.06.07.47.8.37.82-.07.18-4.71.21-9.39.41-14.05l.26-.61c4.19-2.81,8.06-6,10.56-10.51,2.8-5,4.05-10.78,6.24-16,.21-.51-.34-.38-.71-.13-9.76,6.64-13.08,14.06-16.19,24a84.53,84.53,0,0,1,2.25-15.62c2.42-9.48,6.84-18.79,14-25.63A.29.29,0,0,0,437.43,348.71Z" style="fill: rgb(38, 50, 56); transform-origin: 429.024px 378.351px;" id="elnv5xzq7hscd" class="animable"></path><path d="M440.3,350.6c2.68.19,4.2,4.55,6.25,5.88a2,2,0,0,0,3-.35c2.18-2.82-.53-6.5-3.13-8.6,1.89.86,3.42,2.31,5.47,2.78a2,2,0,0,0,2.57-1.41c1.06-3.92-3.82-5.86-7.22-6.07,1.69-1.08,6.53-4,4.08-5.64s-8.19,2.6-10.05,4c-2.74,2.05-6,5.15-6.27,8.52C434.67,353.63,438.2,351.34,440.3,350.6Z" style="fill: rgb(62, 255, 39); transform-origin: 444.793px 346.911px;" id="elwfa1ofi658m" class="animable"></path><g id="elhrpdpow11t6"><path d="M440.3,350.6c2.68.19,4.2,4.55,6.25,5.88a2,2,0,0,0,3-.35c2.18-2.82-.53-6.5-3.13-8.6,1.89.86,3.42,2.31,5.47,2.78a2,2,0,0,0,2.57-1.41c1.06-3.92-3.82-5.86-7.22-6.07,1.69-1.08,6.53-4,4.08-5.64s-8.19,2.6-10.05,4c-2.74,2.05-6,5.15-6.27,8.52C434.67,353.63,438.2,351.34,440.3,350.6Z" style="opacity: 0.1; transform-origin: 444.793px 346.911px;" class="animable"></path></g><path d="M439.5,351.23c3.49-1.43,10,1.07,10.61-.21,1.24-2.6-4-4.62-6.79-5.08,2.64-.61,7.71-1.55,7.65-4.08-.07-3.09-7.69-.72-11.6,2.05-4.93,3.49-5,7-4.27,7.77C436.15,352.7,438.92,351.47,439.5,351.23Z" style="fill: rgb(62, 255, 39); transform-origin: 442.867px 346.241px;" id="elm6rbrtibiif" class="animable"></path><path d="M420.88,387.5a159.81,159.81,0,0,1-5,23.22.58.58,0,0,1-1.13-.23c1.06-7.15,3-14.18,4.06-21.33A107.91,107.91,0,0,0,420,367.25c-.68-12.06-4-24.89-11.83-34.33-.17-.22.19-.54.37-.33,15.76,18.37,13.25,40.89,13.24,42.91,2.23-7.6,4.53-16.32,13-24.06.37-.34.65-.18.59.39-1.51,14.1-5.43,21.47-13.61,29Q421.41,384.2,420.88,387.5Z" style="fill: rgb(38, 50, 56); transform-origin: 421.752px 371.823px;" id="el1ml6f66whit" class="animable"></path><path d="M408.06,335c-2.84-1.26-6.75,2.35-9.55,2.59a2.32,2.32,0,0,1-2.84-2c-.7-4,4.06-6.32,7.84-7-2.38-.14-4.73.49-7.07-.14a2.24,2.24,0,0,1-1.85-2.83c1.05-4.55,7.07-3.88,10.64-2.26-1.13-2-4.47-7.62-1.09-7.95s6.92,7.09,8.05,9.53c1.68,3.57,3.34,8.51,1.77,12.06C412.14,341.18,409.79,336.93,408.06,335Z" style="fill: rgb(62, 255, 39); transform-origin: 404.547px 327.088px;" id="elbrf19y195u" class="animable"></path><g id="eldngvmznv1bj"><path d="M408.06,335c-2.84-1.26-6.75,2.35-9.55,2.59a2.32,2.32,0,0,1-2.84-2c-.7-4,4.06-6.32,7.84-7-2.38-.14-4.73.49-7.07-.14a2.24,2.24,0,0,1-1.85-2.83c1.05-4.55,7.07-3.88,10.64-2.26-1.13-2-4.47-7.62-1.09-7.95s6.92,7.09,8.05,9.53c1.68,3.57,3.34,8.51,1.77,12.06C412.14,341.18,409.79,336.93,408.06,335Z" style="opacity: 0.1; transform-origin: 404.547px 327.088px;" class="animable"></path></g><path d="M408.53,336.11c-2.78-3.35-10.76-4.34-10.69-6,.16-3.32,6.54-2.55,9.67-1.48-2.36-2.06-7-5.76-5.57-8.3,1.75-3.11,8.21,3.43,10.69,8.37,3.13,6.23,1.31,9.89.13,10.23C411.14,339.42,409,336.67,408.53,336.11Z" style="fill: rgb(62, 255, 39); transform-origin: 406.104px 329.256px;" id="el9y7g3be7hoj" class="animable"></path><path d="M431.24,391.74l6.95,53.1H395.91c.87-4.71,8.74-53.16,8.74-53.16Z" style="fill: rgb(62, 255, 39); transform-origin: 417.05px 418.26px;" id="eltzoh6s1yl4d" class="animable"></path></g><g id="freepik--Article--inject-62" class="animable" style="transform-origin: 343.55px 188.675px;"><polygon points="424.8 318.08 242.51 318.08 242.51 59.41 444.59 59.41 444.59 298.27 424.8 318.08" style="fill: rgb(255, 255, 255); transform-origin: 343.55px 188.745px;" id="elidm03xo4rl" class="animable"></polygon><path d="M424.8,318.08c-.09,0-182.31.08-182.4.11s-.09-258.73-.14-258.78v-.25h.25c.1,0,202.12.14,202.22.11s-.18,239-.13,239-19.8,19.8-19.8,19.81Zm0,0,19.77-19.81-.12-238.86c.88.3-202.13.18-201.94.25l.25-.25-.14,258.67c-.68-.26,182.33.07,182.18,0Z" style="fill: rgb(38, 50, 56); transform-origin: 343.506px 188.675px;" id="elhniue91p6h8" class="animable"></path><rect x="242.51" y="59.41" width="202.08" height="7.21" style="fill: rgb(62, 255, 39); transform-origin: 343.55px 63.015px;" id="elikn3gvadyj" class="animable"></rect><path d="M247.81,63a1.22,1.22,0,1,1-1.22-1.22A1.22,1.22,0,0,1,247.81,63Z" style="fill: rgb(199, 199, 199); transform-origin: 246.59px 63px;" id="elf4ljda1hxi" class="animable"></path><path d="M252.78,63a1.22,1.22,0,1,1-1.22-1.22A1.21,1.21,0,0,1,252.78,63Z" style="fill: rgb(255, 255, 255); transform-origin: 251.56px 63px;" id="elthqwmuw05dn" class="animable"></path><path d="M257.76,63a1.22,1.22,0,1,1-1.22-1.22A1.22,1.22,0,0,1,257.76,63Z" style="fill: rgb(69, 90, 100); transform-origin: 256.54px 63px;" id="elhgzlkd2hudg" class="animable"></path><path d="M321.87,88.14H318.6l-.66,1.75a.78.78,0,0,1-1,.43.76.76,0,0,1-.44-1l3-7.93a.78.78,0,0,1,.72-.47.75.75,0,0,1,.71.47l3,7.93a.77.77,0,0,1-.45,1,.62.62,0,0,1-.25,0,.72.72,0,0,1-.69-.47Zm-.55-1.48-1.09-2.89-1.09,2.89Z" style="fill: rgb(38, 50, 56); transform-origin: 320.213px 85.6458px;" id="el0fyhv2heqvn6" class="animable"></path><path d="M332,89.25a.75.75,0,0,1-.47.94,1.34,1.34,0,0,1-.3,0h0a1,1,0,0,1-.53-.15,1.39,1.39,0,0,1-.43-.47A3.62,3.62,0,0,1,330,88a1.1,1.1,0,0,0-.16-.57,1.21,1.21,0,0,0-.41-.4,2.86,2.86,0,0,0-.75-.32h-1.59v2.92a.74.74,0,0,1-.75.74.73.73,0,0,1-.74-.74V81.68a.73.73,0,0,1,.74-.74h2.41a2.88,2.88,0,0,1,2.88,2.89A2.84,2.84,0,0,1,330.56,86a2.25,2.25,0,0,1,.47.5,2.55,2.55,0,0,1,.45,1.45,3,3,0,0,0,0,.8A.74.74,0,0,1,332,89.25Zm-1.89-5.42a1.38,1.38,0,0,0-1.38-1.4h-1.66v2.78h1.66A1.38,1.38,0,0,0,330.11,83.83Z" style="fill: rgb(38, 50, 56); transform-origin: 328.818px 85.655px;" id="el7bhasn69d6n" class="animable"></path><path d="M339.68,82.43h-2.14v7.19a.74.74,0,1,1-1.48,0V82.43h-2.13a.75.75,0,0,1-.74-.75.73.73,0,0,1,.74-.74h5.75a.74.74,0,0,1,.74.74A.76.76,0,0,1,339.68,82.43Z" style="fill: rgb(38, 50, 56); transform-origin: 336.805px 85.65px;" id="elbpohns035z" class="animable"></path><path d="M342.74,81.68a.73.73,0,0,1,.74-.74.75.75,0,0,1,.75.74v7.94a.75.75,0,0,1-.75.74.73.73,0,0,1-.74-.74Z" style="fill: rgb(38, 50, 56); transform-origin: 343.485px 85.65px;" id="elqs154eej1zs" class="animable"></path><path d="M346.34,85.52a4.93,4.93,0,0,1,4.94-4.85,5,5,0,0,1,3.11,1,.78.78,0,0,1-.95,1.23,3.32,3.32,0,0,0-2.16-.75,3.6,3.6,0,0,0-2.43,1,3.35,3.35,0,0,0-1,2.35,3.29,3.29,0,0,0,1,2.34,3.6,3.6,0,0,0,2.43,1,3.39,3.39,0,0,0,2.16-.74.81.81,0,0,1,1.08.15.79.79,0,0,1-.13,1.07,5,5,0,0,1-3.11,1A4.91,4.91,0,0,1,346.34,85.52Z" style="fill: rgb(38, 50, 56); transform-origin: 350.506px 85.495px;" id="ell4h9o67ob" class="animable"></path><path d="M357.14,89.62V81.68a.74.74,0,0,1,.74-.74.75.75,0,0,1,.75.74v7.19h3.65a.76.76,0,0,1,.74.75.75.75,0,0,1-.74.74h-4.4A.73.73,0,0,1,357.14,89.62Z" style="fill: rgb(38, 50, 56); transform-origin: 360.08px 85.65px;" id="elzxhcs2svph8" class="animable"></path><path d="M364.72,89.62V81.68a.73.73,0,0,1,.74-.74h4.41a.74.74,0,0,1,.74.74.75.75,0,0,1-.74.75h-3.65V84.9h3.13a.75.75,0,0,1,.74.74.74.74,0,0,1-.74.75h-3.13v2.48h3.65a.76.76,0,0,1,.74.75.75.75,0,0,1-.74.74H365.5s0,0,0,0h0A.74.74,0,0,1,364.72,89.62Z" style="fill: rgb(38, 50, 56); transform-origin: 367.665px 85.6505px;" id="elkx3tmum23j" class="animable"></path><path d="M379,85.66c17.2-.67,34.52-.67,51.71,0-17.19.67-34.51.67-51.71,0Z" style="fill: rgb(38, 50, 56); transform-origin: 404.855px 85.66px;" id="el7yq56j2vnev" class="animable"></path><path d="M256.37,85.66c17.19-.67,34.51-.67,51.71,0-17.2.67-34.52.67-51.71,0Z" style="fill: rgb(38, 50, 56); transform-origin: 282.225px 85.66px;" id="elim0x0yljswo" class="animable"></path><rect x="256.37" y="95.63" width="174.37" height="10.75" style="fill: rgb(62, 255, 39); transform-origin: 343.555px 101.005px;" id="elo4e7kpx9rpd" class="animable"></rect><path d="M403.41,117.08c8.81-.33,18.51-.33,27.32,0-8.81.33-18.51.33-27.32,0Z" style="fill: rgb(38, 50, 56); transform-origin: 417.07px 117.08px;" id="eltzozey0irzg" class="animable"></path><path d="M370.61,117.08q11.86-.51,23.74,0-11.87.51-23.74,0Z" style="fill: rgb(38, 50, 56); transform-origin: 382.48px 117.08px;" id="elvjqf23kq5qk" class="animable"></path><path d="M328.59,117.08c11.11-.33,23.33-.33,34.43,0-11.1.33-23.32.33-34.43,0Z" style="fill: rgb(38, 50, 56); transform-origin: 345.805px 117.08px;" id="el0j18v6olts7" class="animable"></path><path d="M414.33,124.89a133.94,133.94,0,0,1,16.4,0,132,132,0,0,1-16.4,0Z" style="fill: rgb(38, 50, 56); transform-origin: 422.53px 124.892px;" id="eli5maovhgin" class="animable"></path><path d="M380.89,124.89c9.5-.32,20-.33,29.45,0-9.49.33-19.95.33-29.45,0Z" style="fill: rgb(38, 50, 56); transform-origin: 395.615px 124.892px;" id="el5o6w076y7p9" class="animable"></path><path d="M328.59,124.89c15.56-.32,32.68-.33,48.24,0-15.56.33-32.68.33-48.24,0Z" style="fill: rgb(38, 50, 56); transform-origin: 352.71px 124.892px;" id="elwo3kl6o8pyo" class="animable"></path><path d="M379.66,132.71c16.48-.33,34.6-.33,51.07,0-16.47.33-34.59.33-51.07,0Z" style="fill: rgb(38, 50, 56); transform-origin: 405.195px 132.71px;" id="elodolf4623lf" class="animable"></path><path d="M328.59,132.71c14-.33,29.37-.33,43.35,0-14,.33-29.37.33-43.35,0Z" style="fill: rgb(38, 50, 56); transform-origin: 350.265px 132.71px;" id="elexikqm1jc3h" class="animable"></path><path d="M396.93,140.52c10.9-.32,22.9-.33,33.8,0-10.9.33-22.9.33-33.8,0Z" style="fill: rgb(38, 50, 56); transform-origin: 413.83px 140.522px;" id="elk1fxlzqenih" class="animable"></path><path d="M359.13,140.52c10.33-.32,21.71-.33,32,0-10.33.33-21.71.33-32,0Z" style="fill: rgb(38, 50, 56); transform-origin: 375.13px 140.522px;" id="elbu6sicxfm8d" class="animable"></path><path d="M328.59,140.52c8.28-.32,17.39-.33,25.67,0-8.28.33-17.39.33-25.67,0Z" style="fill: rgb(38, 50, 56); transform-origin: 341.425px 140.522px;" id="eltrlosr8kl0m" class="animable"></path><path d="M328.59,148.34c22.21-.33,46.64-.33,68.85,0-22.21.33-46.64.32-68.85,0Z" style="fill: rgb(38, 50, 56); transform-origin: 363.015px 148.338px;" id="elqlenpqq2sf" class="animable"></path><path d="M409.46,164q10.64-.51,21.27,0-10.64.51-21.27,0Z" style="fill: rgb(38, 50, 56); transform-origin: 420.095px 164px;" id="elt8np85rggki" class="animable"></path><path d="M367.89,164c11.15-.33,23.43-.33,34.58,0-11.15.33-23.43.32-34.58,0Z" style="fill: rgb(38, 50, 56); transform-origin: 385.18px 163.998px;" id="el22eo26hquj3" class="animable"></path><path d="M328.59,164c10.68-.33,22.42-.33,33.09,0-10.67.33-22.41.32-33.09,0Z" style="fill: rgb(38, 50, 56); transform-origin: 345.135px 163.998px;" id="elutafp8k4o5s" class="animable"></path><path d="M385.18,171.78c14.7-.33,30.86-.33,45.55,0-14.69.33-30.85.33-45.55,0Z" style="fill: rgb(38, 50, 56); transform-origin: 407.955px 171.78px;" id="elvjr70ah1eo" class="animable"></path><path d="M350.26,171.78c9.49-.33,19.92-.33,29.4,0-9.48.33-19.91.33-29.4,0Z" style="fill: rgb(38, 50, 56); transform-origin: 364.96px 171.78px;" id="elnoie95t947l" class="animable"></path><path d="M328.59,171.78a163.66,163.66,0,0,1,18.13,0,161.25,161.25,0,0,1-18.13,0Z" style="fill: rgb(38, 50, 56); transform-origin: 337.655px 171.782px;" id="ellc2twagkpge" class="animable"></path><path d="M406.8,179.6q12-.51,23.93,0-12,.51-23.93,0Z" style="fill: rgb(38, 50, 56); transform-origin: 418.765px 179.6px;" id="el6t6teume4s5" class="animable"></path><path d="M371.94,179.6c9.31-.33,19.56-.33,28.87,0-9.31.33-19.56.32-28.87,0Z" style="fill: rgb(38, 50, 56); transform-origin: 386.375px 179.598px;" id="elr70p52c3ggk" class="animable"></path><path d="M328.59,179.6c12.5-.33,26.25-.33,38.75,0-12.5.33-26.25.32-38.75,0Z" style="fill: rgb(38, 50, 56); transform-origin: 347.965px 179.598px;" id="elw8c8imti0db" class="animable"></path><path d="M392.72,187.41c12.26-.33,25.75-.33,38,0-12.26.33-25.75.33-38,0Z" style="fill: rgb(38, 50, 56); transform-origin: 411.72px 187.41px;" id="elwbi82xcn6y" class="animable"></path><path d="M360.46,187.41c8.69-.33,18.25-.33,26.94,0-8.69.33-18.25.33-26.94,0Z" style="fill: rgb(38, 50, 56); transform-origin: 373.93px 187.41px;" id="elamn8drr5l7" class="animable"></path><path d="M319.45,187.41c12.16-.33,25.53-.33,37.69,0-12.16.33-25.53.33-37.69,0Z" style="fill: rgb(38, 50, 56); transform-origin: 338.295px 187.41px;" id="elep9kebw27o9" class="animable"></path><path d="M292.4,187.41q10.75-.51,21.51,0-10.76.51-21.51,0Z" style="fill: rgb(38, 50, 56); transform-origin: 303.155px 187.41px;" id="elhndlmgay7jb" class="animable"></path><path d="M256.54,187.41c10.21-.33,21.44-.33,31.65,0-10.21.33-21.44.33-31.65,0Z" style="fill: rgb(38, 50, 56); transform-origin: 272.365px 187.41px;" id="eluhmie2lldq" class="animable"></path><path d="M343,195.23c15.41-.33,32.36-.33,47.77,0-15.41.33-32.36.32-47.77,0Z" style="fill: rgb(38, 50, 56); transform-origin: 366.885px 195.228px;" id="elr65ho6lifs" class="animable"></path><path d="M308.92,195.23c10.12-.33,21.25-.33,31.37,0-10.12.33-21.25.32-31.37,0Z" style="fill: rgb(38, 50, 56); transform-origin: 324.605px 195.228px;" id="elijesozks5r" class="animable"></path><path d="M282.54,195.23q11.85-.51,23.72,0-11.86.5-23.72,0Z" style="fill: rgb(38, 50, 56); transform-origin: 294.4px 195.228px;" id="elf92am9jgoup" class="animable"></path><path d="M256.54,195.23q11.22-.51,22.45,0-11.22.5-22.45,0Z" style="fill: rgb(38, 50, 56); transform-origin: 267.765px 195.228px;" id="elu1y4yk0t69" class="animable"></path><path d="M406.8,210.86q12-.51,23.93,0-12,.49-23.93,0Z" style="fill: rgb(38, 50, 56); transform-origin: 418.765px 210.855px;" id="elu8856er6i8e" class="animable"></path><path d="M376.83,210.86c8.57-.33,18-.33,26.58,0-8.57.33-18,.32-26.58,0Z" style="fill: rgb(38, 50, 56); transform-origin: 390.12px 210.858px;" id="el8i92pfzc4mh" class="animable"></path><path d="M345.14,210.86c8.64-.33,18.15-.33,26.8,0-8.65.33-18.16.32-26.8,0Z" style="fill: rgb(38, 50, 56); transform-origin: 358.54px 210.858px;" id="elko3ydpamksg" class="animable"></path><path d="M325.88,210.86a99,99,0,0,1,14.41,0,101.92,101.92,0,0,1-14.41,0Z" style="fill: rgb(38, 50, 56); transform-origin: 333.085px 210.856px;" id="el6sxscvncn6q" class="animable"></path><path d="M293.74,210.86c8.81-.33,18.51-.33,27.32,0-8.81.33-18.51.32-27.32,0Z" style="fill: rgb(38, 50, 56); transform-origin: 307.4px 210.858px;" id="elp40ug6cxuws" class="animable"></path><path d="M256.54,210.86c10.73-.33,22.53-.33,33.26,0-10.73.33-22.53.32-33.26,0Z" style="fill: rgb(38, 50, 56); transform-origin: 273.17px 210.858px;" id="ellsapg5fmr4l" class="animable"></path><path d="M392.72,218.67c12.26-.33,25.75-.33,38,0-12.26.33-25.75.33-38,0Z" style="fill: rgb(38, 50, 56); transform-origin: 411.72px 218.67px;" id="el3umk2odt535" class="animable"></path><path d="M365,218.67q11.9-.51,23.77,0-11.88.51-23.77,0Z" style="fill: rgb(38, 50, 56); transform-origin: 376.885px 218.67px;" id="elv2q0530emv" class="animable"></path><path d="M335.52,218.67q12.48-.51,24.94,0-12.46.51-24.94,0Z" style="fill: rgb(38, 50, 56); transform-origin: 347.99px 218.67px;" id="elkm4qv0mbgzi" class="animable"></path><path d="M283.65,218.67c15.12-.33,31.76-.33,46.88,0-15.12.33-31.76.33-46.88,0Z" style="fill: rgb(38, 50, 56); transform-origin: 307.09px 218.67px;" id="eleyworjtpf1q" class="animable"></path><path d="M256.54,218.67q11.22-.51,22.45,0-11.22.51-22.45,0Z" style="fill: rgb(38, 50, 56); transform-origin: 267.765px 218.67px;" id="eld4lty9evm8f" class="animable"></path><path d="M315.07,226.48c13.57-.32,28.5-.33,42.07,0-13.57.33-28.5.33-42.07,0Z" style="fill: rgb(38, 50, 56); transform-origin: 336.105px 226.482px;" id="elckxncqf15io" class="animable"></path><path d="M292.4,226.48a176.36,176.36,0,0,1,18.68,0,171.18,171.18,0,0,1-18.68,0Z" style="fill: rgb(38, 50, 56); transform-origin: 301.74px 226.484px;" id="elo2v4ggojnak" class="animable"></path><path d="M256.54,226.48c10-.32,21-.33,30.93,0-10,.33-21,.33-30.93,0Z" style="fill: rgb(38, 50, 56); transform-origin: 272.005px 226.482px;" id="eldoi0ezv58ir" class="animable"></path><path d="M309.58,234.3c9.06-.33,19-.33,28.08,0-9.06.33-19,.33-28.08,0Z" style="fill: rgb(38, 50, 56); transform-origin: 323.62px 234.3px;" id="elqzbdw4pb86" class="animable"></path><path d="M280.82,234.3q12.39-.51,24.77,0-12.37.51-24.77,0Z" style="fill: rgb(38, 50, 56); transform-origin: 293.205px 234.3px;" id="el9w25s5yhpsb" class="animable"></path><path d="M256.54,234.3q10.4-.51,20.79,0-10.4.51-20.79,0Z" style="fill: rgb(38, 50, 56); transform-origin: 266.935px 234.3px;" id="eltsfm8n53f28" class="animable"></path><path d="M321.06,249.93c11.63-.33,24.44-.33,36.08,0-11.64.33-24.45.33-36.08,0Z" style="fill: rgb(38, 50, 56); transform-origin: 339.1px 249.93px;" id="elm1f6dgsl5y" class="animable"></path><path d="M290.46,249.93c8.53-.33,17.91-.33,26.43,0-8.52.33-17.9.33-26.43,0Z" style="fill: rgb(38, 50, 56); transform-origin: 303.675px 249.93px;" id="elnd4r3736gac" class="animable"></path><path d="M256.54,249.93c9.55-.33,20-.33,29.6,0-9.55.33-20.05.33-29.6,0Z" style="fill: rgb(38, 50, 56); transform-origin: 271.34px 249.93px;" id="el0r3d1wptizl" class="animable"></path><path d="M336.1,257.74q10.53-.5,21,0-10.51.51-21,0Z" style="fill: rgb(38, 50, 56); transform-origin: 346.6px 257.742px;" id="elf2m33ynuit" class="animable"></path><path d="M306.26,257.74c8.09-.32,17-.33,25.11,0-8.1.33-17,.33-25.11,0Z" style="fill: rgb(38, 50, 56); transform-origin: 318.815px 257.742px;" id="elfnrxhkirzd" class="animable"></path><path d="M277.33,257.74q12.19-.5,24.41,0-12.21.51-24.41,0Z" style="fill: rgb(38, 50, 56); transform-origin: 289.535px 257.742px;" id="el47o1477q4n1" class="animable"></path><path d="M256.54,257.74a137.72,137.72,0,0,1,16.63,0,135.69,135.69,0,0,1-16.63,0Z" style="fill: rgb(38, 50, 56); transform-origin: 264.855px 257.742px;" id="el39ejai6hraa" class="animable"></path><path d="M316.89,265.56c13-.33,27.27-.33,40.25,0-13,.33-27.27.33-40.25,0Z" style="fill: rgb(38, 50, 56); transform-origin: 337.015px 265.56px;" id="elyrcqc5ggdbi" class="animable"></path><path d="M289.53,265.56q11.45-.51,22.88,0-11.43.51-22.88,0Z" style="fill: rgb(38, 50, 56); transform-origin: 300.97px 265.56px;" id="ely241ggmorbe" class="animable"></path><path d="M256.54,265.56c9.28-.33,19.49-.33,28.77,0-9.28.33-19.49.33-28.77,0Z" style="fill: rgb(38, 50, 56); transform-origin: 270.925px 265.56px;" id="elakinh3wgy8a" class="animable"></path><path d="M256.54,273.37c17.59-.32,36.94-.33,54.54,0-17.59.33-36.95.33-54.54,0Z" style="fill: rgb(38, 50, 56); transform-origin: 283.81px 273.372px;" id="el6bcemsom09g" class="animable"></path><path d="M378.42,289c16.88-.32,35.44-.33,52.31,0-16.87.33-35.43.33-52.31,0Z" style="fill: rgb(38, 50, 56); transform-origin: 404.575px 289.002px;" id="el5107eypxqvp" class="animable"></path><path d="M346.72,289c9-.32,18.89-.33,27.88,0-9,.33-18.89.33-27.88,0Z" style="fill: rgb(38, 50, 56); transform-origin: 360.66px 289.002px;" id="elytxjpwkyyb9" class="animable"></path><path d="M328.59,289A101.21,101.21,0,0,1,343,289a99.75,99.75,0,0,1-14.36,0Z" style="fill: rgb(38, 50, 56); transform-origin: 335.795px 289.001px;" id="elduj0nl35oq" class="animable"></path><path d="M290.46,289c11-.32,23.13-.33,34.14,0-11,.33-23.13.33-34.14,0Z" style="fill: rgb(38, 50, 56); transform-origin: 307.53px 289.002px;" id="ellvk57jdsr" class="animable"></path><path d="M256.54,289c9.55-.32,20-.33,29.6,0-9.55.33-20.05.33-29.6,0Z" style="fill: rgb(38, 50, 56); transform-origin: 271.34px 289.002px;" id="ely72ypshvper" class="animable"></path><path d="M393.72,296.82c11.94-.33,25.07-.33,37,0-11.94.33-25.07.32-37,0Z" style="fill: rgb(38, 50, 56); transform-origin: 412.22px 296.818px;" id="el7bi8g3sods8" class="animable"></path><path d="M363.58,296.82c8.11-.33,17-.33,25.15,0-8.11.33-17,.32-25.15,0Z" style="fill: rgb(38, 50, 56); transform-origin: 376.155px 296.818px;" id="el9v0gfl1gdsw" class="animable"></path><path d="M337,296.82q11.39-.51,22.78,0-11.4.51-22.78,0Z" style="fill: rgb(38, 50, 56); transform-origin: 348.39px 296.82px;" id="el8qigsicfwxe" class="animable"></path><path d="M301.74,296.82c10.11-.33,21.24-.33,31.34,0-10.1.33-21.23.32-31.34,0Z" style="fill: rgb(38, 50, 56); transform-origin: 317.41px 296.818px;" id="el5ghwhzojymw" class="animable"></path><path d="M276.61,296.82q10.69-.51,21.39,0-10.69.51-21.39,0Z" style="fill: rgb(38, 50, 56); transform-origin: 287.305px 296.82px;" id="elhmwnc9p73u" class="animable"></path><path d="M256.54,296.82a122.81,122.81,0,0,1,15.82,0,124.64,124.64,0,0,1-15.82,0Z" style="fill: rgb(38, 50, 56); transform-origin: 264.45px 296.818px;" id="elgcc6874dxis" class="animable"></path><path d="M345.14,304.63c9.28-.33,19.51-.33,28.79,0-9.28.33-19.51.33-28.79,0Z" style="fill: rgb(38, 50, 56); transform-origin: 359.535px 304.63px;" id="el282gudavexrh" class="animable"></path><path d="M318.81,304.63q10.74-.5,21.48,0-10.74.51-21.48,0Z" style="fill: rgb(38, 50, 56); transform-origin: 329.55px 304.633px;" id="elew7llxf1ktv" class="animable"></path><path d="M289.53,304.63c8.24-.33,17.31-.33,25.54,0-8.23.33-17.3.33-25.54,0Z" style="fill: rgb(38, 50, 56); transform-origin: 302.3px 304.63px;" id="elu3l3n9lb81b" class="animable"></path><path d="M256.54,304.63c9-.33,18.93-.33,27.94,0-9,.33-18.93.33-27.94,0Z" style="fill: rgb(38, 50, 56); transform-origin: 270.51px 304.63px;" id="elx7kbnmbb92" class="animable"></path><g id="elu2oikmogxpp"><rect x="256.37" y="115.96" width="63.64" height="63.64" style="fill: rgb(235, 235, 235); transform-origin: 288.19px 147.78px; transform: rotate(180deg);" class="animable"></rect></g><g id="elwyqcufmdpbe"><rect x="259.48" y="119.07" width="57.41" height="57.41" style="fill: rgb(62, 255, 39); transform-origin: 288.185px 147.775px; transform: rotate(180deg);" class="animable"></rect></g><g id="elkvifn2dioxq"><path d="M268.73,132.77a5.42,5.42,0,1,0,4.25-4.25A5.42,5.42,0,0,0,268.73,132.77Z" style="opacity: 0.1; transform-origin: 274.044px 133.834px;" class="animable"></path></g><g id="elxv2th0y8dva"><polygon points="275.4 161.58 316.89 161.58 296.15 138.32 275.4 161.58" style="opacity: 0.1; transform-origin: 296.145px 149.95px;" class="animable"></polygon></g><polygon points="259.48 161.58 293.74 161.58 276.61 146.43 259.48 161.58" style="fill: rgb(62, 255, 39); transform-origin: 276.61px 154.005px;" id="elr1r9apcep5r" class="animable"></polygon><g id="elml439hwlc8q"><g style="opacity: 0.2; transform-origin: 276.61px 154.005px;" class="animable"><polygon points="259.48 161.58 293.74 161.58 276.61 146.43 259.48 161.58" id="el2lnzsycfvpe" class="animable" style="transform-origin: 276.61px 154.005px;"></polygon></g></g><rect x="259.48" y="161.58" width="57.41" height="14.9" style="fill: rgb(62, 255, 39); transform-origin: 288.185px 169.03px;" id="elmtcw0jem9t" class="animable"></rect><g id="el8xstp3egwq5"><rect x="259.48" y="161.58" width="57.41" height="14.9" style="opacity: 0.2; transform-origin: 288.185px 169.03px;" class="animable"></rect></g><g id="eljssyjfx1jil"><rect x="363.58" y="225.92" width="67.73" height="47.73" style="fill: rgb(235, 235, 235); transform-origin: 397.445px 249.785px; transform: rotate(180deg);" class="animable"></rect></g><g id="elkerk964pb4r"><rect x="365.91" y="228.26" width="63.05" height="43.05" style="fill: rgb(69, 90, 100); transform-origin: 397.435px 249.785px; transform: rotate(180deg);" class="animable"></rect></g><path d="M372.85,238.53a4.06,4.06,0,1,0,3.19-3.19A4.07,4.07,0,0,0,372.85,238.53Z" style="fill: rgb(55, 71, 79); transform-origin: 376.832px 239.322px;" id="elm74ilrhpe2" class="animable"></path><polygon points="377.85 260.14 428.97 260.14 403.41 242.69 377.85 260.14" style="fill: rgb(55, 71, 79); transform-origin: 403.41px 251.415px;" id="elc5ghbcka1e" class="animable"></polygon><polygon points="365.91 260.14 400.81 260.14 383.36 248.78 365.91 260.14" style="fill: rgb(38, 50, 56); transform-origin: 383.36px 254.46px;" id="elzc9py915wvn" class="animable"></polygon><rect x="365.91" y="260.14" width="63.05" height="11.17" style="fill: rgb(38, 50, 56); transform-origin: 397.435px 265.725px;" id="elzwxssfltax" class="animable"></rect><circle cx="242.51" cy="188.74" r="9.66" style="fill: rgb(69, 90, 100); transform-origin: 242.51px 188.74px;" id="eld1nql0tjtmu" class="animable"></circle><path d="M244,191.61a.76.76,0,0,1-.53,1.3.83.83,0,0,1-.55-.22l-3.37-3.42a.09.09,0,0,1-.06-.07l0,0a.21.21,0,0,1,0-.1.09.09,0,0,1,0-.05s0-.06,0-.07,0-.05,0-.06v-.08s0,0,0-.08,0,0,0-.06v-.08s0,0,0,0,0-.06,0-.09,0,0,0,0a.6.6,0,0,1,.06-.11,0,0,0,0,1,0,0,.25.25,0,0,1,.07-.08L243,184.8a.78.78,0,0,1,1.08,0,.76.76,0,0,1,0,1.08l-2.84,2.86Z" style="fill: rgb(255, 255, 255); transform-origin: 241.895px 188.746px;" id="el906bmufxrf" class="animable"></path><circle cx="444.59" cy="188.74" r="9.66" style="fill: rgb(69, 90, 100); transform-origin: 444.59px 188.74px;" id="elmp61mixlkvs" class="animable"></circle><path d="M443.07,185.88a.76.76,0,0,1,.53-1.3.79.79,0,0,1,.55.22l3.37,3.42s.05,0,.06.07l0,0a.21.21,0,0,1,0,.1.07.07,0,0,1,0,.05s0,.06,0,.07,0,.05,0,.06v.08s0,0,0,.07,0,0,0,.06v.09s0,0,0,.05,0,.06,0,.09,0,0,0,0,0,.08-.06.1,0,0,0,0a.17.17,0,0,1-.07.08l-3.37,3.42a.78.78,0,0,1-1.08,0,.76.76,0,0,1,0-1.08l2.84-2.87Z" style="fill: rgb(255, 255, 255); transform-origin: 445.18px 188.704px;" id="el320jsxnqink" class="animable"></path><polygon points="424.8 318.08 444.61 298.27 424.8 298.27 424.8 318.08" style="fill: rgb(235, 235, 235); transform-origin: 434.705px 308.175px;" id="el6d78y7cjrlr" class="animable"></polygon></g><g id="freepik--Character--inject-62" class="animable" style="transform-origin: 224.633px 295.522px;"><path d="M159.16,277c8.89,50.11,29.47,110.68,39,120.82,12.1,12.83,90.66,35.3,94.83,36,10.34,1.57,38.24-62.78,27.26-64.94-16.72-3.27-76.68-15-80.16-18.94-3.61-4.13-27.83-38-52.57-76.19C170.49,247.32,153.64,245.89,159.16,277Z" style="fill: rgb(211, 118, 106); transform-origin: 240.429px 343.82px;" id="el7bkxw7vp24k" class="animable"></path><path d="M287.39,432.39c1.11.45,16.92,6.69,26.51,8.56,7.16,1.39,27.87,4.85,30.18-2.88,1.59-5.27-10.35-8.73-18.74-11.37-4.42-1.39-10.07-5.38-9.06-8.23,1.77-5,13.16-1.17,20.75,2.37,14.67,6.85,34.56,19.76,42.44,11.92,3-3-1.2-7.5-7.1-11.78,9.38,4.76,19.25,8.48,22.69,5.31,2-1.8,1.87-4,.46-6.44,2.82.65,5.23.25,6.76-1.68,2.61-3.28.8-7.61-2.76-11.89a3.47,3.47,0,0,0,2.46-2c5.27-9.87-27.71-33.85-38.51-35.4-31.78-4.59-64.43-.26-64.43-.26C287.7,379.52,287.36,432.38,287.39,432.39Z" style="fill: rgb(211, 118, 106); transform-origin: 345.452px 404.852px;" id="elko3cyz1vukp" class="animable"></path><path d="M330.55,399.64A52.9,52.9,0,0,1,352,405.75c8.36,4.5,14.14,10.12,21.31,15.66.18.14,0,.44-.22.3-3.42-2.64-17.47-12.42-21.07-14.61a50.51,50.51,0,0,0-21.5-7.34C330.45,399.76,330.47,399.63,330.55,399.64Z" style="fill: rgb(38, 50, 56); transform-origin: 351.93px 410.693px;" id="elp96g6tydera" class="animable"></path><path d="M335.16,385.91c8.38,1.5,17,3,24.89,6.19,8.69,3.49,15.81,9.8,22.8,15.86q6.3,5.46,12.34,11.2c.17.16,0,.46-.22.3q-10.65-9.4-21.86-18.17a66.77,66.77,0,0,0-23.27-11.9c-4.84-1.36-9.77-2.35-14.7-3.33A.08.08,0,0,1,335.16,385.91Z" style="fill: rgb(38, 50, 56); transform-origin: 365.177px 402.708px;" id="elwv3cpu8kt3n" class="animable"></path><path d="M342.85,373.58c8.09.92,15.15,1.69,22.57,5.31,9.82,4.8,19.66,13.48,23.12,16.57,3.82,3.4,7.52,6.93,11.17,10.52.15.14-.1.4-.26.26a266.18,266.18,0,0,0-26.39-21.82,52.91,52.91,0,0,0-14.34-7.59c-5.14-1.68-10.55-2.41-15.87-3.19A0,0,0,0,1,342.85,373.58Z" style="fill: rgb(38, 50, 56); transform-origin: 371.303px 389.93px;" id="eltdhhgr0q8eq" class="animable"></path><path d="M307.37,358.76l-30,80.68s-69-23.51-81.16-38-32.16-86.92-37.38-121.82,12.21-33.17,27.17-10.58,52.3,77.39,54.48,78.65S307.37,358.76,307.37,358.76Z" style="fill: rgb(62, 255, 39); transform-origin: 232.628px 346.041px;" id="elq1krds28qqq" class="animable"></path><path d="M271.3,401.65c3.39-9,6.85-18,9.9-27.12,1.74-5.19,3.5-10.38,5.19-15.58.06-.2-.27-.34-.35-.15-3.76,8.9-7.51,17.84-10.86,26.92s-6.75,18-10,27.1q-2.75,7.74-5,15.63a.1.1,0,0,0,.18.07C264.45,419.74,267.89,410.72,271.3,401.65Z" style="fill: rgb(38, 50, 56); transform-origin: 273.288px 393.635px;" id="eln9izzxepqdd" class="animable"></path><g id="el1lck1o5cici"><path d="M242.62,426.4l-3.05-1.24c-5.73-2.38-11.57-4.91-17.06-7.49-.71-.32-1.41-.65-2.09-1-1.11-.52-2.21-1.06-3.27-1.59-.54-.26-1.06-.54-1.59-.8L215,414l-1.65-.86c-2.17-1.14-4.23-2.27-6.14-3.4-.44-.25-.9-.52-1.33-.79a49.35,49.35,0,0,1-8.35-6.11c-.24-.24-.47-.47-.68-.7s-.43-.46-.62-.68c-12.11-14.45-32.17-86.92-37.39-121.82-.05-.41-.11-.81-.17-1.21a2.28,2.28,0,0,1,0-.26c-.34-2.65-.59-5.92-.75-9.45v0c-.11-17.24,8.17-19.64,17.85-11.58C198.2,312.2,232.14,403,242.62,426.4Z" style="opacity: 0.1; transform-origin: 200.269px 339.553px;" class="animable"></path></g><path d="M210,444.57H45.75c6.94-30.95,35.72-147,86.64-193.47l0,0,1.13-1c7.39-6.56,24.07-5.09,35,.32a7.78,7.78,0,0,1,2,1.71c4.36,4.82,12.28,18.24,16.68,32,0,0,0,0,0,0a73.57,73.57,0,0,1,1.95,7.25c.11.47.22,1,.33,1.67h0c.11.48.2,1,.31,1.61.14.83.29,1.74.46,2.74C194.66,324.06,205.91,411.08,210,444.57Z" style="fill: rgb(62, 255, 39); transform-origin: 127.875px 345.158px;" id="eludg3m90jg3h" class="animable"></path><polygon points="158.57 291.75 166.33 279.93 174.4 289.4 172.36 298.37 163.22 299.86 158.57 291.75" style="fill: rgb(38, 50, 56); transform-origin: 166.485px 289.895px;" id="el5kr5n78u925" class="animable"></polygon><polygon points="163.22 299.86 162.31 403.18 175.69 435.31 187.82 400.54 172.36 298.37 163.22 299.86" style="fill: rgb(38, 50, 56); transform-origin: 175.065px 366.84px;" id="elbfq05h1stde" class="animable"></polygon><path d="M113.94,278.81C88.66,333.89,71.51,425.23,87.17,439.12c17.44,15.46,50.3-49.38,48.88-52.62-1.08-2.45-.29-61.38.9-104.46S120.19,265.19,113.94,278.81Z" style="fill: rgb(211, 118, 106); transform-origin: 109.09px 349.929px;" id="elpokk0sg8hp" class="animable"></path><path d="M136.44,386.42c-.31-6.15,1.56-84.16,1.34-108.53s-9.72-28.49-24.31-.8S77.39,374.51,79.24,413.55c1.78,37.6,19.28,34.94,36.58,11A165.32,165.32,0,0,0,136.44,386.42Z" style="fill: rgb(62, 255, 39); transform-origin: 108.463px 350.079px;" id="elexbl4npx1ud" class="animable"></path><path d="M136.25,396.49q-1.41-43.74,1.3-87.49,1.42,43.74-1.3,87.49Z" style="fill: rgb(38, 50, 56); transform-origin: 136.902px 352.745px;" id="elcoq8x37fjjk" class="animable"></path><path d="M137.6,325.93a57.45,57.45,0,0,1,2.56-11.21,34.65,34.65,0,0,1-2.56,11.21Z" style="fill: rgb(38, 50, 56); transform-origin: 138.88px 320.325px;" id="elrcfkk8snp3h" class="animable"></path><path d="M91.58,439.9c14.25,9.89,44.11,4.48,112-6.52,9.39-1.53,12-72.33,1.87-71.22-12.74,1.4-61.87,9.58-65.38,10.64C110.38,381.67,81.91,433.19,91.58,439.9Z" style="fill: rgb(211, 118, 106); transform-origin: 150.794px 403.617px;" id="el4aaf8flawbv" class="animable"></path><path d="M218.19,358c19.74-3.78,25.39-1.72,40.35-13.75,9.83-7.9,19.09-5,13.86,7-8.54,19.67-33,29.89-42.48,31Z" style="fill: rgb(211, 118, 106); transform-origin: 246.05px 361.039px;" id="el8prgeudbjgm" class="animable"></path><path d="M174.84,374.87s13.22-8.64,33.86-14.75c14.27-4.22,46.35-9.95,78.85,20.34,7.71,7.18,13.6,22.89-3.25,15.73-12-5.09-18-11.93-25.53-13.62,0,0,5.13,20.87-2.37,28.31a193.84,193.84,0,0,1-21,18.05,40,40,0,0,1-3.73-3.62s-6.85,7.83-29.4,8.3Z" style="fill: rgb(211, 118, 106); transform-origin: 235.001px 395.162px;" id="elsb1fqqymjd" class="animable"></path><path d="M223,358.27c7.09,3.25,22,10.39,32.18,20.48,11.29,11.21,30,35.83,21.67,44.09-6.13,6.05-14.11-2.73-14.11-2.73s5.6,11.82-1.13,16.07c-6.13,3.88-11.9-3.28-11.9-3.28s2.16,7.75-4.46,10.35c-8,3.12-11.2-13.63-22-17.45C220.77,425,223,358.27,223,358.27Z" style="fill: rgb(211, 118, 106); transform-origin: 250.501px 400.953px;" id="elw4ybd3secwq" class="animable"></path><path d="M241.31,388.71c6.16,4.15,17.75,17.18,21.48,31.09.09.31-.11.54-.24.27a156.32,156.32,0,0,0-21.35-31.25C241.14,388.75,241.24,388.66,241.31,388.71Z" style="fill: rgb(38, 50, 56); transform-origin: 251.997px 404.442px;" id="ele47iiqrzl5" class="animable"></path><path d="M230.33,400.44c4.95,4.13,16.3,18.09,19.59,32.31.07.32-.13.54-.26.26a168,168,0,0,0-19.44-32.47C230.16,400.47,230.26,400.39,230.33,400.44Z" style="fill: rgb(38, 50, 56); transform-origin: 240.068px 416.781px;" id="el6fnyrmuuyiu" class="animable"></path><path d="M258.77,382.44c6.57,1.58,11,4.54,16.61,8.06a89.06,89.06,0,0,0,8.62,4.87c2.71,1.29,6.71,3.25,9.41.87,1.5-1.32,1.36-3.59.92-5.35a25.84,25.84,0,0,0-3.93-7.19c-.07-.09.07-.2.14-.12a37.48,37.48,0,0,1,4.23,6.37,8.66,8.66,0,0,1,.84,5c-.77,3.63-5,4.31-8,3.48a28.29,28.29,0,0,1-5.23-2.21c-1.62-.82-3.19-1.72-4.74-2.66-3.19-1.92-6.26-4-9.42-6a83.67,83.67,0,0,0-9.55-4.93C258.56,382.6,258.64,382.41,258.77,382.44Z" style="fill: rgb(38, 50, 56); transform-origin: 277.151px 390.592px;" id="el3wkvjxzqroq" class="animable"></path><path d="M273.49,404.55c-1.86-3.61-11.72-18.54-14.85-21.95a.09.09,0,0,1,.13-.13c5.3,4.53,14.06,16.83,16.15,20.81s4.49,9,4.72,13.46c.35,6.77-4.08,8.28-5.72,8.69a8.77,8.77,0,0,1-5.81-.65,17.67,17.67,0,0,1-5.47-4.64c-.08-.09,0-.22.12-.14,2.48,2.55,6.52,5,10.17,4.32a6.16,6.16,0,0,0,4.07-2.47,8,8,0,0,0,.81-5.51C277.24,412.16,275.41,408.26,273.49,404.55Z" style="fill: rgb(38, 50, 56); transform-origin: 269.137px 404.051px;" id="elgd0bf7wawy" class="animable"></path><path d="M193.82,360.94,162,443.51s-60.13,8-73.82-3.18c-9-7.36,17.86-61.13,51.31-68.78Z" style="fill: rgb(62, 255, 39); transform-origin: 140.122px 403.611px;" id="el3bv8b2q74xp" class="animable"></path><path d="M105.45,396c3.7-5.66,14.82-19.81,34.09-24.51.17,0,.27.22.1.28-14,4.89-29.95,19.27-34,24.41C105.55,396.31,105.35,396.13,105.45,396Z" style="fill: rgb(38, 50, 56); transform-origin: 122.575px 383.857px;" id="elaizzmkbs8ec" class="animable"></path><path d="M143,439c3-9.27,6.51-18.36,10-27.45s7-18.19,10.79-27.2c2.13-5.09,4.22-10.19,6.52-15.2a.13.13,0,0,1,.25.08c-3,9.25-6.47,18.37-9.93,27.47s-7,18.2-10.69,27.25c-2.06,5.11-4.22,10.19-6.52,15.2C143.34,439.37,142.9,439.24,143,439Z" style="fill: rgb(38, 50, 56); transform-origin: 156.776px 404.161px;" id="elnk3sw9el30l" class="animable"></path><path d="M193.61,360.1a85.56,85.56,0,0,0-11.25,1.59c-3.74.68-7.46,1.42-11.18,2.19-7.39,1.54-23.22,3.95-36.07,8.89-.14.05.85.47,1,.4,6-2.66,53.2-10.65,56.91-11.77a5.16,5.16,0,0,0-.11.88c0,.2.26.37.4.17.33-.48.51-1,.81-1.48A.56.56,0,0,0,193.61,360.1Z" style="fill: rgb(38, 50, 56); transform-origin: 164.656px 366.638px;" id="elmjonq18agdf" class="animable"></path><path d="M99.93,445.06c-11.71-1.91-16.91-6.21-19.69-17.93-3.55-15.6-1.41-31.79.91-47.4,4.27-25,11.11-49.4,18.83-73.49-2.73,11-6.68,25.94-9.2,36.77-5.33,24-17.23,70.49-6.28,92.61,3.22,6.1,9.17,7.84,15.43,9.44Z" style="fill: rgb(38, 50, 56); transform-origin: 89.1677px 375.65px;" id="elz7zm95iprj" class="animable"></path><path d="M96.61,308.47c-.44,3.87-1.11,7.59-.7,11.48-1.46-3.66-.75-7.92.7-11.48Z" style="fill: rgb(38, 50, 56); transform-origin: 95.8585px 314.21px;" id="el56ie4l74l8f" class="animable"></path><path d="M166.62,279.81c-9.76.85-23.83-15.94-28.5-28.56-.32-.87,2.15-9.13,4.67-19.31,1.51-6.18,3.05-13.1,4-19.51.19-1.32,38.79,15.69,38.79,15.69s-5.93,12.86-7.5,24.06a14.31,14.31,0,0,0-.11,2.67c0,.12,0,.27,0,.44C178,260.41,176.05,279,166.62,279.81Z" style="fill: rgb(211, 118, 106); transform-origin: 161.836px 246.099px;" id="el78085h5g4za" class="animable"></path><path d="M149.23,213c.27,11.12,3.16,38.31,24.56,41.95a24.21,24.21,0,0,0,4.15.39,1.73,1.73,0,0,0,0-.45,17.4,17.4,0,0,1,.1-2.67c1.59-11.21,7.53-24.07,7.53-24.07S157.72,215.84,149.23,213Z" style="fill: rgb(38, 50, 56); transform-origin: 167.4px 234.17px;" id="elk8yhomk6dt" class="animable"></path><path d="M152.89,162c-7.58,13-9.69,55.32-1.83,66.71,11.4,16.5,34.8,23.32,50,8.53,14.76-14.33,16.53-69.49,7.31-80.32C194.8,140.92,164.08,142.71,152.89,162Z" style="fill: rgb(211, 118, 106); transform-origin: 180.062px 195.748px;" id="el0sfvpufjz6gi" class="animable"></path><path d="M187,197.28c0-.11-.23.13-.23.25,0,2.85-.56,6.11-3.18,6.94-.08,0-.08.17,0,.16C186.78,204.33,187.43,200,187,197.28Z" style="fill: rgb(38, 50, 56); transform-origin: 185.324px 200.941px;" id="eleeqmua706k" class="animable"></path><path d="M184.6,194.19c-4.57-.55-5.34,8.62-1.11,9.14S188.43,194.66,184.6,194.19Z" style="fill: rgb(38, 50, 56); transform-origin: 183.907px 198.759px;" id="ela3ebm7vjf1e" class="animable"></path><path d="M202.91,198.71c0-.11.21.15.2.27-.33,2.83-.23,6.13,2.26,7.29.08,0,.06.18,0,.16C202.23,205.72,202.14,201.34,202.91,198.71Z" style="fill: rgb(38, 50, 56); transform-origin: 203.965px 202.558px;" id="elyld6r42bkl" class="animable"></path><path d="M205.7,196c4.6,0,4.18,9.24-.08,9.2S201.84,195.92,205.7,196Z" style="fill: rgb(38, 50, 56); transform-origin: 205.798px 200.6px;" id="el3n5m8ygel66" class="animable"></path><path d="M181.58,188.12a36.23,36.23,0,0,0,3.73-.61c1.43-.25,2.59-.3,3.69-1.35a1.94,1.94,0,0,0,.11-2.37c-1.15-1.45-3-1.58-4.71-1.35a7.08,7.08,0,0,0-4.56,2.3C178.58,186.07,179.88,188.23,181.58,188.12Z" style="fill: rgb(38, 50, 56); transform-origin: 184.399px 185.237px;" id="elvidkk6b6zsf" class="animable"></path><path d="M210.82,191.25a35.19,35.19,0,0,1-3.65-1c-1.39-.41-2.54-.59-3.51-1.75a2,2,0,0,1,.15-2.37c1.3-1.31,3.13-1.24,4.83-.82a7.13,7.13,0,0,1,4.28,2.79A2.07,2.07,0,0,1,210.82,191.25Z" style="fill: rgb(38, 50, 56); transform-origin: 208.292px 188.16px;" id="elroka5hz8qqa" class="animable"></path><path d="M178.88,222.37c.57.76,1.11,1.77,2.12,2a7.6,7.6,0,0,0,3.14-.25.1.1,0,0,1,.1.16,3.84,3.84,0,0,1-3.81,1,3,3,0,0,1-1.85-2.83C178.57,222.28,178.79,222.26,178.88,222.37Z" style="fill: rgb(38, 50, 56); transform-origin: 181.421px 223.867px;" id="elo4qxzi6bgba" class="animable"></path><path d="M183.11,214.37a9.74,9.74,0,0,0,5.77,5.24,12.36,12.36,0,0,0,3.43.68,5.1,5.1,0,0,0,.67,0h.63a.71.71,0,0,0,.66-.55v0a1,1,0,0,0,0-.29v0l0-.25c.38-2.16.67-5.5.67-5.5.73.52,4.5,2.95,4.61,1.8.85-9.47,1.8-20,.65-29.62a.27.27,0,0,0-.53,0c-1.18,9.08-.75,18.3-1.79,27.43-1.22-.68-3.19-1.91-4.33-2.05-.32,0-.44,6.45-.69,7.41a.25.25,0,0,1,0,.1c-3.72-.09-6.3-1.6-9.48-4.58C183.23,214,183,214.12,183.11,214.37Z" style="fill: rgb(38, 50, 56); transform-origin: 191.906px 202.981px;" id="el63t85pe48vw" class="animable"></path><path d="M191.19,219a11.47,11.47,0,0,1-5.09,2.85,5.25,5.25,0,0,1-3.14-.27c-2.17-.94-1.91-3-1.23-4.72a12.35,12.35,0,0,1,1.41-2.55A15,15,0,0,0,191.19,219Z" style="fill: rgb(38, 50, 56); transform-origin: 186.217px 218.143px;" id="elixxeebwzzp" class="animable"></path><path d="M186.1,221.84a5.25,5.25,0,0,1-3.14-.27c-2.17-.94-1.91-3-1.23-4.72C184.1,217.46,186.25,219.46,186.1,221.84Z" style="fill: rgb(255, 152, 185); transform-origin: 183.676px 219.408px;" id="elwp00wr1vyd" class="animable"></path><path d="M145.42,193.25c5.66,2.55,12.18-5.39,14.26-8.84s3.25-20.3,7-25.38,10.33-7.21,15-5,9.95,9.53,13.58,9.75,5.69-7.41,8.19-7c5.49.84,10.52,18.76,10.59,24.93,0,0,5.21-29.4-23.15-35.63-25.48-5.6-37.11,8-40.53,15.41C143.73,175.6,145.42,193.25,145.42,193.25Z" style="fill: rgb(38, 50, 56); transform-origin: 179.822px 169.254px;" id="el88s7hdqhfun" class="animable"></path><path d="M178.76,211.4a12.42,12.42,0,1,1,14.58-13.11h0a12.43,12.43,0,0,1-11.5,13.27A12.09,12.09,0,0,1,178.76,211.4Zm4.1-22.82a11.26,11.26,0,0,0-2.67-.14,10.75,10.75,0,1,0,2.67.14Z" style="fill: rgb(235, 235, 235); transform-origin: 180.951px 199.175px;" id="elm77sark39im" class="animable"></path><path d="M207.21,213c-4.67-.84-8.06-6.4-7.66-12.87a14.83,14.83,0,0,1,3.15-8.5,7.73,7.73,0,0,1,13.22.81,14.85,14.85,0,0,1,2.09,8.82c-.42,6.84-4.9,12.14-10,11.83A7.43,7.43,0,0,1,207.21,213Zm2.85-23a4.34,4.34,0,0,0-.63-.08,6.63,6.63,0,0,0-5.45,2.72,13.22,13.22,0,0,0-2.78,7.55c-.36,5.93,2.73,10.95,6.92,11.21s7.87-4.36,8.23-10.28a13.13,13.13,0,0,0-1.83-7.83A6.82,6.82,0,0,0,210.06,190Z" style="fill: rgb(235, 235, 235); transform-origin: 208.786px 200.694px;" id="el1z3furnd38s" class="animable"></path><path d="M192.84,199.7l-1-1.34c2-1.46,6.45-3.32,9.28.11l-1.28,1.05C197.32,196.45,193,199.57,192.84,199.7Z" style="fill: rgb(235, 235, 235); transform-origin: 196.48px 198.113px;" id="eltxs3oevn99o" class="animable"></path><path d="M140.4,200.23l-1.42-.85c.39-.67,4-6.51,7.72-6.89,3.49-.34,22.59,2.39,23.53,2.54l-.26,1.64c-6.33-1-20.41-2.79-23.11-2.52C144.4,194.39,141.36,198.62,140.4,200.23Z" style="fill: rgb(235, 235, 235); transform-origin: 154.605px 196.345px;" id="elrtclq55c9wm" class="animable"></path><path d="M153.8,197s-6.4-15.14-13.08-13.13-3.83,22.58,2.63,26.69a7.3,7.3,0,0,0,10.38-1.79Z" style="fill: rgb(211, 118, 106); transform-origin: 145.35px 197.835px;" id="ele5ib1z6lkjv" class="animable"></path><path d="M141.68,189.79c-.11,0-.16.11-.07.18,4.49,3,6.11,8.16,6.91,13.27-1.08-2.13-2.85-3.55-5.67-2.33-.14.06-.06.29.08.29a4.5,4.5,0,0,1,4.51,2.56,21.26,21.26,0,0,1,1.47,4.4c.14.49,1,.43.93-.11a.59.59,0,0,1,0-.13C151.28,201.68,148.28,191.86,141.68,189.79Z" style="fill: rgb(38, 50, 56); transform-origin: 145.879px 199.142px;" id="eluliheoqxx8" class="animable"></path><path d="M178,254.09l-12.23,20.83-25.93-31.48-7.59,9.72s22.7,45.37,23.06,43.45l10.94-17.4,11.91,14.05,2.1-32.08Z" style="fill: rgb(62, 255, 39); transform-origin: 156.255px 270.055px;" id="elujp8cbfjr5" class="animable"></path><path d="M180.13,277.46c.16-5.31.48-10.65.38-16,0-.19-.3-.3-.36-.09-1.61,5-2.11,25.29-2.61,30.12l-.06-.06c-.49-.6-11.1-12.42-11.23-12.26-2.27,2.71-10.29,15.38-10.86,16.55-3.59-7.21-19-35.74-23.42-42.65-.13-.2-.44-.08-.35.15,3.06,7.54,22.91,45.13,23.25,45.07.21.19,10.16-15.4,11.46-18.4,1.74,2.51,12.33,15.71,12.44,14.93A158.29,158.29,0,0,0,180.13,277.46Z" style="fill: rgb(38, 50, 56); transform-origin: 156.066px 275.63px;" id="ele3en63mi71i" class="animable"></path></g><g id="freepik--Device--inject-62" class="animable" style="transform-origin: 291.505px 397.63px;"><rect x="166.48" y="438.44" width="158.6" height="6.4" style="fill: rgb(69, 90, 100); transform-origin: 245.78px 441.64px;" id="elc4vfdfze7pi" class="animable"></rect><rect x="166.48" y="438.44" width="87.76" height="6.4" style="fill: rgb(166, 166, 166); transform-origin: 210.36px 441.64px;" id="eldqwivo99ebb" class="animable"></rect><polygon points="251.58 444.83 390.58 444.83 410.23 350.42 271.22 350.42 251.58 444.83" style="fill: rgb(166, 166, 166); transform-origin: 330.905px 397.625px;" id="elk4z19ao11p" class="animable"></polygon><polygon points="257.88 444.83 396.89 444.83 416.53 350.42 277.52 350.42 257.88 444.83" style="fill: rgb(199, 199, 199); transform-origin: 337.205px 397.625px;" id="el4of9jvzoftg" class="animable"></polygon><path d="M327.94,399.74a8.18,8.18,0,0,0,8.29,9.26,10.55,10.55,0,0,0,10.24-9.26,8.19,8.19,0,0,0-8.29-9.27A10.55,10.55,0,0,0,327.94,399.74Z" style="fill: rgb(235, 235, 235); transform-origin: 337.205px 399.735px;" id="elh90xc51ok5" class="animable"></path></g><g id="freepik--speech-bubble--inject-62" class="animable animator-active" style="transform-origin: 101.1px 129.403px;"><path d="M58.49,133.49A38.73,38.73,0,0,0,123.22,158l19.38,2.85-9.7-16.76a38.74,38.74,0,1,0-74.41-10.59Z" style="fill: rgb(255, 255, 255); transform-origin: 100.44px 129.477px;" id="elicspvk65zf7" class="animable"></path><path d="M70.09,101.5a38.6,38.6,0,0,1,32.45-10.78,39,39,0,0,1,16.54,6.2,39.23,39.23,0,0,1,14.52,47.45l0-.67,9.64,16.79.71,1.24-1.4-.21-19.36-3,.45-.14a39,39,0,0,1-19.16,9.46,33.26,33.26,0,0,1-5.36.56,37.15,37.15,0,0,1-5.38-.1,39.33,39.33,0,0,1-19.78-7.69,43.48,43.48,0,0,1-4.09-3.46,46.37,46.37,0,0,1-3.51-4,39,39,0,0,1,3.78-51.63ZM66.43,153A43,43,0,0,0,70,157,42.71,42.71,0,0,0,74,160.45a36,36,0,0,0,9.35,5,38.21,38.21,0,0,0,10.34,2.28,39.06,39.06,0,0,0,5.3,0,33.15,33.15,0,0,0,5.26-.64,38.12,38.12,0,0,0,18.55-9.56l.19-.18.27,0,19.4,2.72-.7,1-9.75-16.72-.18-.32.14-.34a38.79,38.79,0,0,0,2.72-16.88A38.16,38.16,0,0,0,130,110.53a39.72,39.72,0,0,0-11.59-12.65,38,38,0,0,0-16-6.32,38.3,38.3,0,0,0-36,61.48Z" style="fill: rgb(38, 50, 56); transform-origin: 101.1px 129.403px;" id="el602qepsbo17" class="animable"></path><polygon points="92.23 151.34 75.68 134.59 81.24 129.1 90.91 138.88 110.99 107.4 117.58 111.6 92.23 151.34" style="fill: rgb(62, 255, 39); transform-origin: 96.63px 129.37px;" id="elges6xq4jus9" class="animable"></polygon></g><defs>     <filter id="active" height="200%">         <feMorphology in="SourceAlpha" result="DILATED" operator="dilate" radius="2"></feMorphology>                <feFlood flood-color="#32DFEC" flood-opacity="1" result="PINK"></feFlood>        <feComposite in="PINK" in2="DILATED" operator="in" result="OUTLINE"></feComposite>        <feMerge>            <feMergeNode in="OUTLINE"></feMergeNode>            <feMergeNode in="SourceGraphic"></feMergeNode>        </feMerge>    </filter>    <filter id="hover" height="200%">        <feMorphology in="SourceAlpha" result="DILATED" operator="dilate" radius="2"></feMorphology>                <feFlood flood-color="#ff0000" flood-opacity="0.5" result="PINK"></feFlood>        <feComposite in="PINK" in2="DILATED" operator="in" result="OUTLINE"></feComposite>        <feMerge>            <feMergeNode in="OUTLINE"></feMergeNode>            <feMergeNode in="SourceGraphic"></feMergeNode>        </feMerge>            <feColorMatrix type="matrix" values="0   0   0   0   0                0   1   0   0   0                0   0   0   0   0                0   0   0   1   0 "></feColorMatrix>    </filter></defs></svg>